<svg width="80" height="80" viewBox="0 0 80 80" fill="none" xmlns="http://www.w3.org/2000/svg">
<mask id="mask0_9710_142" style="mask-type:alpha" maskUnits="userSpaceOnUse" x="13" y="25" width="54" height="41">
<path d="M65.2515 34.9329C66.2281 35.8582 66.2973 37.3904 65.4082 38.4L41.8776 65.1196C40.8821 66.2499 39.1206 66.2499 38.1252 65.1196L14.5945 38.4C13.7054 37.3904 13.7747 35.8582 14.7512 34.9329L24.2476 25.9352C24.712 25.4952 25.3274 25.25 25.9671 25.25H54.0356C54.6754 25.25 55.2907 25.4952 55.7551 25.9352L65.2515 34.9329Z" fill="#FFE142"/>
</mask>
<g mask="url(#mask0_9710_142)">
<path d="M67.002 36.5909L40.002 67.25L39.8405 67.0672L13.002 36.5909L24.9714 25.25H55.0325L67.002 36.5909Z" fill="#FFE142"/>
<path d="M63.5022 33.275C65.4553 35.1255 65.5938 38.1898 63.8156 40.209L40.002 67.25V25.25H55.0325L63.5022 33.275Z" fill="#FFE142"/>
<path d="M49.0469 36.5655H30.959L39.8414 25.4522L40.0029 25.25L49.0469 36.5655Z" fill="#FFED4C"/>
<path d="M55.0321 25.25L48.9141 36.5655H67.0019L55.0321 25.25Z" fill="#FFC83B"/>
<path d="M24.9718 25.25L31.0898 36.5655H13.002L24.9718 25.25Z" fill="#FFC83C"/>
<path d="M48.9141 36.5649L40.002 67.2494L39.8405 66.6942L31.0898 36.5649H48.9141Z" fill="#FFC83B"/>
<path d="M49.0459 36.5655H48.9141L40.002 67.25V25.25L49.0459 36.5655Z" fill="#FFED4C"/>
<path d="M49.0459 36.5655H40.002V25.25L49.0459 36.5655Z" fill="#FFC83B"/>
</g>
<path fill-rule="evenodd" clip-rule="evenodd" d="M44.0006 16.6011C43.0003 16.8692 41.9722 16.2756 41.7042 15.2753L41.5904 14.8507C40.8562 12.1106 42.2773 9.2525 44.9052 8.18407L48.1076 6.88208C48.9836 6.52594 49.4573 5.57325 49.2125 4.65986L49.0988 4.23527C48.8307 3.23503 49.4243 2.20689 50.4246 1.93888C51.4248 1.67086 52.453 2.26445 52.721 3.2647L52.8348 3.68929C53.569 6.42945 52.1479 9.28752 49.52 10.3559L46.3176 11.6579C45.4416 12.0141 44.9679 12.9668 45.2126 13.8802L45.3264 14.3047C45.5944 15.305 45.0008 16.3331 44.0006 16.6011Z" fill="#FFE142"/>
<path fill-rule="evenodd" clip-rule="evenodd" d="M12.6059 16.1676C9.9029 16.49 7.35696 14.8304 6.56083 12.2273L6.51139 12.0656C6.28329 11.3198 5.61734 10.7931 4.83904 10.7429L4.2454 10.7046C3.21201 10.638 2.42831 9.74621 2.49496 8.71283C2.5616 7.67944 3.45335 6.89574 4.48674 6.96239L5.08039 7.00068C7.41528 7.15126 9.41314 8.73147 10.0974 10.9689L10.1469 11.1306C10.4122 11.9983 11.2609 12.5514 12.1619 12.444L12.3911 12.4167C13.4193 12.2941 14.3523 13.0282 14.4749 14.0565C14.5975 15.0847 13.8634 16.0177 12.8351 16.1403L12.6059 16.1676Z" fill="#D698F9"/>
<path fill-rule="evenodd" clip-rule="evenodd" d="M58.8824 63.0399C61.5854 62.7176 64.1313 64.3771 64.9275 66.9802L64.9769 67.1419C65.205 67.8877 65.8709 68.4144 66.6492 68.4646L67.2429 68.5029C68.2763 68.5696 69.06 69.4613 68.9933 70.4947C68.9267 71.5281 68.0349 72.3118 67.0015 72.2451L66.4079 72.2068C64.073 72.0563 62.0751 70.476 61.3909 68.2386L61.3414 68.077C61.076 67.2092 60.2274 66.6561 59.3264 66.7635L59.0972 66.7908C58.0689 66.9135 57.136 66.1793 57.0134 65.151C56.8908 64.1228 57.6249 63.1898 58.6532 63.0672L58.8824 63.0399Z" fill="#FFE142"/>
<path fill-rule="evenodd" clip-rule="evenodd" d="M15.0589 68C16.1309 68 17 68.8208 17 69.8333L17 70.1816C17 73.0072 14.733 75.373 11.7561 75.6542L11.639 75.6652C10.7901 75.7454 10.0961 76.3397 9.92877 77.1299L9.8449 77.5259C9.63466 78.5187 8.61203 79.1626 7.5608 78.964C6.50958 78.7655 5.82782 77.7997 6.03807 76.8068L6.12194 76.4108C6.62391 74.0404 8.70588 72.2574 11.2527 72.0169L11.3698 72.0058C12.3621 71.9121 13.1178 71.1235 13.1178 70.1816L13.1178 69.8333C13.1178 68.8208 13.9868 68 15.0589 68Z" fill="#EF8288"/>
<path d="M76.25 7.5C76.25 9.57107 74.5711 11.25 72.5 11.25C70.4289 11.25 68.75 9.57107 68.75 7.5C68.75 5.42893 70.4289 3.75 72.5 3.75C74.5711 3.75 76.25 5.42893 76.25 7.5Z" fill="#EF8288"/>
<path d="M74.5 47.75C74.5 49.8211 72.8211 51.5 70.75 51.5C68.6789 51.5 67 49.8211 67 47.75C67 45.6789 68.6789 44 70.75 44C72.8211 44 74.5 45.6789 74.5 47.75Z" fill="#D698F9"/>
<path d="M55 77.5C55 78.8807 53.8807 80 52.5 80C51.1193 80 50 78.8807 50 77.5C50 76.1193 51.1193 75 52.5 75C53.8807 75 55 76.1193 55 77.5Z" fill="#D698F9"/>
<path d="M56.25 15C56.25 16.3807 55.1307 17.5 53.75 17.5C52.3693 17.5 51.25 16.3807 51.25 15C51.25 13.6193 52.3693 12.5 53.75 12.5C55.1307 12.5 56.25 13.6193 56.25 15Z" fill="#D698F9"/>
<path d="M36.25 5C36.25 6.38071 35.1307 7.5 33.75 7.5C32.3693 7.5 31.25 6.38071 31.25 5C31.25 3.61929 32.3693 2.5 33.75 2.5C35.1307 2.5 36.25 3.61929 36.25 5Z" fill="#EF8288"/>
<path d="M10 25C10 26.3807 8.88071 27.5 7.5 27.5C6.11929 27.5 5 26.3807 5 25C5 23.6193 6.11929 22.5 7.5 22.5C8.88071 22.5 10 23.6193 10 25Z" fill="#FFE142"/>
<path d="M28.75 69.75C28.75 71.1307 27.6307 72.25 26.25 72.25C24.8693 72.25 23.75 71.1307 23.75 69.75C23.75 68.3693 24.8693 67.25 26.25 67.25C27.6307 67.25 28.75 68.3693 28.75 69.75Z" fill="#FFE142"/>
<path d="M73.7803 18.0932C73.9666 17.5158 74.7836 17.5158 74.9699 18.0932L75.8839 20.9256C75.9364 21.0883 76.0533 21.2224 76.2073 21.2967L78.8321 22.5619C79.3036 22.7892 79.3036 23.4607 78.8321 23.688L76.2073 24.9532C76.0533 25.0275 75.9364 25.1616 75.8839 25.3243L74.9699 28.1567C74.7836 28.7341 73.9666 28.7341 73.7803 28.1567L72.8663 25.3243C72.8138 25.1616 72.6969 25.0275 72.5429 24.9532L69.9181 23.688C69.4466 23.4607 69.4466 22.7892 69.9181 22.5619L72.5429 21.2967C72.6969 21.2224 72.8138 21.0883 72.8663 20.9256L73.7803 18.0932Z" fill="#FFE142"/>
<path d="M25.0283 11.9481C25.209 11.3591 26.0427 11.3591 26.2234 11.9481L26.7854 13.7802C26.8352 13.9425 26.9488 14.0775 27.1002 14.1543L28.9016 15.0677C29.358 15.2992 29.358 15.9511 28.9016 16.1826L27.1002 17.096C26.9488 17.1728 26.8352 17.3078 26.7854 17.4701L26.2234 19.3023C26.0427 19.8912 25.209 19.8912 25.0283 19.3023L24.4663 17.4701C24.4165 17.3078 24.3029 17.1728 24.1515 17.096L22.3502 16.1826C21.8937 15.9511 21.8937 15.2992 22.3502 15.0677L24.1515 14.1543C24.3029 14.0775 24.4165 13.9425 24.4663 13.7802L25.0283 11.9481Z" fill="#FFE142"/>
<path d="M74.0205 59.4417C74.2012 58.8528 75.0349 58.8528 75.2156 59.4417L75.7776 61.2738C75.8273 61.4361 75.941 61.5712 76.0924 61.648L77.8937 62.5614C78.3502 62.7928 78.3502 63.4448 77.8937 63.6762L76.0924 64.5897C75.941 64.6664 75.8273 64.8015 75.7776 64.9638L75.2156 66.7959C75.0349 67.3849 74.2012 67.3849 74.0205 66.7959L73.4585 64.9638C73.4087 64.8015 73.2951 64.6664 73.1437 64.5897L71.3423 63.6762C70.8859 63.4448 70.8859 62.7928 71.3423 62.5614L73.1437 61.648C73.2951 61.5712 73.4087 61.4361 73.4585 61.2738L74.0205 59.4417Z" fill="#EF8288"/>
<path d="M6.40457 45.1391C6.58839 44.5565 7.41283 44.5565 7.59664 45.1391L9.04163 49.7188C9.09292 49.8814 9.2084 50.016 9.3613 50.0914L13.3635 52.0644C13.8284 52.2936 13.8284 52.9564 13.3635 53.1856L9.3613 55.1586C9.2084 55.234 9.09292 55.3686 9.04163 55.5312L7.59664 60.1109C7.41283 60.6935 6.58839 60.6935 6.40457 60.1109L4.95959 55.5312C4.90829 55.3686 4.79282 55.234 4.63991 55.1586L0.637701 53.1856C0.17285 52.9564 0.172849 52.2936 0.6377 52.0644L4.63991 50.0914C4.79282 50.016 4.90829 49.8814 4.95959 49.7188L6.40457 45.1391Z" fill="#D698F9"/>
</svg>
