<?xml version="1.0" encoding="UTF-8" standalone="no"?> <svg width="64" height="64" viewBox="0 0 64 64" fill="none" xmlns="http://www.w3.org/2000/svg">
<path d="M25.2299 34.7399C26.3518 34.7399 27.4484 34.4071 28.3811 33.7836C29.3137 33.1602 30.0404 32.274 30.4693 31.2374C30.8981 30.2008 31.0098 29.0602 30.7903 27.9601C30.5707 26.8599 30.0297 25.8496 29.2357 25.0571C28.4417 24.2645 27.4305 23.7253 26.33 23.5076C25.2294 23.29 24.0891 23.4037 23.0532 23.8344C22.0173 24.2651 21.1325 24.9934 20.5106 25.9271C19.8888 26.8608 19.558 27.9581 19.5599 29.0799C19.5626 30.5819 20.1611 32.0216 21.2242 33.0827C22.2872 34.1439 23.7279 34.7399 25.2299 34.7399ZM25.2299 26.4099C25.758 26.4099 26.2742 26.5665 26.7133 26.8599C27.1524 27.1533 27.4946 27.5703 27.6967 28.0581C27.8988 28.546 27.9517 29.0829 27.8486 29.6008C27.7456 30.1187 27.4913 30.5945 27.1179 30.9679C26.7445 31.3413 26.2688 31.5956 25.7508 31.6986C25.2329 31.8016 24.6961 31.7488 24.2082 31.5467C23.7203 31.3446 23.3033 31.0024 23.0099 30.5633C22.7165 30.1242 22.5599 29.608 22.5599 29.0799C22.5599 28.3718 22.8412 27.6927 23.342 27.1919C23.8427 26.6912 24.5218 26.4099 25.2299 26.4099V26.4099Z" fill="black"/>
<path d="M56 2.5H23.21C21.7521 2.50264 20.3547 3.08295 19.3238 4.11383C18.293 5.14471 17.7126 6.54212 17.71 8V9.5H16.21C14.7521 9.50264 13.3547 10.083 12.3238 11.1138C11.293 12.1447 10.7126 13.5421 10.71 15V17.71H8C6.54212 17.7126 5.14471 18.293 4.11383 19.3238C3.08295 20.3547 2.50264 21.7521 2.5 23.21V56C2.50264 57.4579 3.08295 58.8553 4.11383 59.8862C5.14471 60.917 6.54212 61.4974 8 61.5H40.79C42.2479 61.4974 43.6453 60.917 44.6762 59.8862C45.707 58.8553 46.2874 57.4579 46.29 56V53.28H49C50.4579 53.2774 51.8553 52.697 52.8862 51.6662C53.917 50.6353 54.4974 49.2379 54.5 47.78V46.29H56C57.4579 46.2874 58.8553 45.707 59.8862 44.6762C60.917 43.6453 61.4974 42.2479 61.5 40.79V8C61.4974 6.54212 60.917 5.14471 59.8862 4.11383C58.8553 3.08295 57.4579 2.50264 56 2.5V2.5ZM8 20.71H40.79C41.453 20.71 42.0889 20.9734 42.5578 21.4422C43.0266 21.9111 43.29 22.547 43.29 23.21V49.42L34.87 41C34.5887 40.7191 34.2075 40.5613 33.81 40.5613C33.4125 40.5613 33.0313 40.7191 32.75 41L27 46.76L16.6 36.35C16.3175 36.0715 15.9367 35.9154 15.54 35.9154C15.1433 35.9154 14.7625 36.0715 14.48 36.35L5.48 45.35V23.21C5.47999 22.88 5.54531 22.5533 5.6722 22.2486C5.79908 21.944 5.98502 21.6675 6.21929 21.4351C6.45356 21.2027 6.73152 21.019 7.03715 20.8945C7.34277 20.7701 7.67002 20.7074 8 20.71V20.71ZM5.5 56V49.58L15.5 39.58L34.5 58.58H8C7.66485 58.5802 7.33309 58.513 7.02445 58.3823C6.7158 58.2517 6.43656 58.0604 6.20334 57.8197C5.97011 57.579 5.78766 57.2939 5.66684 56.9813C5.54601 56.6687 5.48928 56.335 5.5 56V56ZM40.79 58.5H38.79L29.17 48.88L33.85 44.19L43.33 53.67V56C43.33 56.3317 43.2641 56.6601 43.1359 56.966C43.0078 57.272 42.8201 57.5494 42.5837 57.7821C42.3473 58.0147 42.0669 58.198 41.759 58.3213C41.4511 58.4446 41.1217 58.5053 40.79 58.5V58.5ZM51.5 47.78C51.5 48.443 51.2366 49.0789 50.7678 49.5478C50.2989 50.0166 49.663 50.28 49 50.28H46.29V23.21C46.2874 21.7521 45.707 20.3547 44.6762 19.3238C43.6453 18.293 42.2479 17.7126 40.79 17.71H13.71V15C13.71 14.337 13.9734 13.7011 14.4422 13.2322C14.9111 12.7634 15.547 12.5 16.21 12.5H49C49.663 12.5 50.2989 12.7634 50.7678 13.2322C51.2366 13.7011 51.5 14.337 51.5 15V47.78ZM58.5 40.78C58.5 41.443 58.2366 42.0789 57.7678 42.5478C57.2989 43.0166 56.663 43.28 56 43.28H54.5V15C54.4974 13.5421 53.917 12.1447 52.8862 11.1138C51.8553 10.083 50.4579 9.50264 49 9.5H20.71V8C20.71 7.33696 20.9734 6.70107 21.4422 6.23223C21.9111 5.76339 22.547 5.5 23.21 5.5H56C56.663 5.5 57.2989 5.76339 57.7678 6.23223C58.2366 6.70107 58.5 7.33696 58.5 8V40.78Z" fill="black"/>
</svg>
