<svg width="16" height="16" viewBox="0 0 16 16" fill="none" xmlns="http://www.w3.org/2000/svg">
<defs>
<linearGradient id="paint0_linear_6569_16464" x1="1" y1="1" x2="16" y2="16" gradientUnits="userSpaceOnUse">
<stop stop-color="#F5DF1A"/>
<stop offset="0.354167" stop-color="#F51A69"/>
<stop offset="1" stop-color="#7A1AF5"/>
</linearGradient>
</defs>
<path d="M8.375 1.85188C10.3775 1.85188 10.615 1.85938 11.4063 1.89563C13.4388 1.98813 14.3881 2.9525 14.4806 4.97C14.5169 5.76062 14.5237 5.99813 14.5237 8.00063C14.5237 10.0038 14.5162 10.2406 14.4806 11.0313C14.3875 13.0469 13.4406 14.0131 11.4063 14.1056C10.615 14.1419 10.3788 14.1494 8.375 14.1494C6.3725 14.1494 6.135 14.1419 5.34438 14.1056C3.30688 14.0125 2.3625 13.0438 2.27 11.0306C2.23375 10.24 2.22625 10.0031 2.22625 8C2.22625 5.9975 2.23438 5.76063 2.27 4.96938C2.36313 2.9525 3.31 1.9875 5.34438 1.895C6.13563 1.85938 6.3725 1.85188 8.375 1.85188V1.85188ZM8.375 0.5C6.33812 0.5 6.08312 0.50875 5.28312 0.545C2.55938 0.67 1.04563 2.18125 0.920625 4.9075C0.88375 5.70813 0.875 5.96312 0.875 8C0.875 10.0369 0.88375 10.2925 0.92 11.0925C1.045 13.8162 2.55625 15.33 5.2825 15.455C6.08313 15.4912 6.33812 15.5 8.375 15.5C10.4119 15.5 10.6675 15.4912 11.4675 15.455C14.1888 15.33 15.7063 13.8187 15.8294 11.0925C15.8663 10.2925 15.875 10.0369 15.875 8C15.875 5.96312 15.8662 5.70812 15.83 4.90812C15.7075 2.18687 14.1944 0.670625 11.4681 0.545625C10.6675 0.50875 10.4119 0.5 8.375 0.5V0.5ZM8.375 4.14875C6.24812 4.14875 4.52375 5.87312 4.52375 8C4.52375 10.1269 6.24812 11.8519 8.375 11.8519C10.5019 11.8519 12.2263 10.1275 12.2263 8C12.2263 5.87312 10.5019 4.14875 8.375 4.14875ZM8.375 10.5C6.99437 10.5 5.875 9.38125 5.875 8C5.875 6.61937 6.99437 5.5 8.375 5.5C9.75563 5.5 10.875 6.61937 10.875 8C10.875 9.38125 9.75563 10.5 8.375 10.5ZM12.3788 3.09688C11.8813 3.09688 11.4781 3.5 11.4781 3.99687C11.4781 4.49375 11.8813 4.89687 12.3788 4.89687C12.8756 4.89687 13.2781 4.49375 13.2781 3.99687C13.2781 3.5 12.8756 3.09688 12.3788 3.09688Z" fill="url(#paint0_linear_6569_16464)"/>
</svg>
