<svg width="16" height="15" viewBox="0 0 16 15" fill="none" xmlns="http://www.w3.org/2000/svg">
<path fill-rule="evenodd" clip-rule="evenodd" d="M15.875 6.58625C15.875 3.23063 12.5106 0.5 8.375 0.5C4.24 0.5 0.875 3.23063 0.875 6.58625C0.875 9.595 3.54313 12.115 7.1475 12.5912C7.39188 12.6437 7.72375 12.7525 7.80812 12.9613C7.88375 13.1506 7.8575 13.4475 7.8325 13.6394L7.72563 14.2812C7.6925 14.4706 7.57438 15.0225 8.375 14.6856C9.17562 14.3481 12.6944 12.1425 14.2675 10.3312C15.3544 9.13937 15.875 7.92937 15.875 6.58625ZM4.0075 4.96438C4.08812 4.96438 4.15375 5.03 4.15375 5.11062V7.70625H5.58312C5.66375 7.70625 5.72875 7.77125 5.72875 7.85187V8.37812C5.72875 8.45875 5.66375 8.52437 5.58312 8.52437H3.48125C3.44187 8.52437 3.40687 8.50875 3.38062 8.48375L3.38 8.48312L3.37875 8.48187L3.37813 8.48125L3.37625 8.47937C3.35125 8.45312 3.33562 8.4175 3.33562 8.37875V5.11062C3.33562 5.03 3.40062 4.96438 3.48125 4.96438H4.0075ZM13.3775 4.96438C13.4581 4.96438 13.5231 5.03 13.5231 5.11062V5.63687C13.5231 5.7175 13.4581 5.78312 13.3775 5.78312H11.9481V6.335H13.3775C13.4581 6.335 13.5231 6.40062 13.5231 6.48125V7.0075C13.5231 7.08812 13.4581 7.15375 13.3775 7.15375H11.9481V7.70625H13.3775C13.4581 7.70625 13.5231 7.77187 13.5231 7.85187V8.37812C13.5231 8.45875 13.4581 8.52437 13.3775 8.52437H11.2756C11.2362 8.52437 11.2006 8.50875 11.1744 8.48375L11.1725 8.48125L11.1706 8.47937C11.1456 8.45312 11.1294 8.4175 11.1294 8.37875V5.11062C11.1294 5.07187 11.145 5.03625 11.17 5.01L11.1725 5.0075L11.1744 5.00563C11.2006 4.98063 11.2362 4.96438 11.2756 4.96438H13.3775ZM6.85125 4.965C6.93187 4.965 6.9975 5.03 6.9975 5.11062V8.37875C6.9975 8.45875 6.93187 8.52437 6.85125 8.52437H6.325C6.24438 8.52437 6.17875 8.45875 6.17875 8.37875V5.11062C6.17875 5.03 6.24438 4.965 6.325 4.965H6.85125ZM8.18062 4.965H8.18562L8.19312 4.96562L8.20125 4.96625L8.2075 4.96687L8.21562 4.96875L8.22062 4.97062L8.22937 4.97312L8.23437 4.975L8.2425 4.97875L8.24687 4.98063L8.255 4.985L8.25937 4.9875L8.26687 4.99312L8.27063 4.99562L8.27875 5.0025L8.28125 5.005L8.29 5.01375L8.29125 5.015L8.3025 5.02938L9.8 7.05188V5.11062C9.8 5.03 9.86562 4.965 9.94625 4.965H10.4719C10.5531 4.965 10.6181 5.03 10.6181 5.11062V8.37875C10.6181 8.45875 10.5531 8.52437 10.4719 8.52437H9.94625L9.90875 8.51937L9.90625 8.51875L9.89688 8.51562L9.8925 8.51375L9.885 8.51125L9.87813 8.5075L9.87375 8.50562L9.865 8.5L9.86375 8.49875L9.82625 8.4625L8.32687 6.4375V8.37875C8.32687 8.45875 8.26188 8.52437 8.18062 8.52437H7.655C7.57437 8.52437 7.50875 8.45875 7.50875 8.37875V5.11062C7.50875 5.03 7.57437 4.965 7.655 4.965H8.18062Z" fill="#5AC363"/>
</svg>
