<svg width="209" height="144" viewBox="0 0 209 144" fill="none" xmlns="http://www.w3.org/2000/svg">
<g clip-path="url(#clip0_991_60001)">
<path d="M104.486 143.027C93.1913 143.011 82.0614 140.318 72.0079 135.171C61.9545 130.024 53.2634 122.568 46.6467 113.414C40.03 104.261 35.676 93.67 33.9412 82.5095C32.2064 71.3489 33.1403 59.9362 36.6663 49.2061C40.1924 38.476 46.2102 28.7339 54.227 20.7778C62.2437 12.8217 72.0312 6.87803 82.7878 3.43358C93.5443 -0.0108723 104.964 -0.858067 116.111 0.9614C127.258 2.78087 137.815 7.21523 146.918 13.9012C149.272 15.6298 150.843 18.2226 151.285 21.1094C151.728 23.9962 151.005 26.9404 149.276 29.2944C147.548 31.6483 144.955 33.2192 142.068 33.6614C139.182 34.1037 136.237 33.381 133.883 31.6525C126.486 26.2299 117.727 22.9694 108.584 22.2346C99.4418 21.4998 90.2748 23.3197 82.1062 27.4912C73.9376 31.6628 67.0886 38.0218 62.3235 45.859C57.5583 53.6962 55.0644 62.7032 55.1199 71.8752C55.1754 81.0471 57.7783 90.0233 62.6379 97.8022C67.4976 105.581 74.4231 111.857 82.6416 115.929C90.8601 120.001 100.049 121.71 109.182 120.865C118.315 120.019 127.033 116.653 134.365 111.141C136.698 109.491 139.581 108.814 142.405 109.252C145.228 109.691 147.771 111.211 149.493 113.491C151.216 115.771 151.983 118.632 151.634 121.468C151.284 124.304 149.844 126.893 147.62 128.686C135.204 138.068 120.047 143.107 104.486 143.027Z" fill="#252525"/>
<path d="M160.655 81.9637V98.6562C160.655 101.42 161.753 104.071 163.708 106.026C165.663 107.981 168.314 109.079 171.078 109.079C173.842 109.079 176.493 107.981 178.448 106.026C180.402 104.071 181.5 101.42 181.5 98.6562V81.9637H198.193C200.957 81.9637 203.608 80.8657 205.563 78.9111C207.517 76.9565 208.615 74.3055 208.615 71.5412C208.615 68.777 207.517 66.126 205.563 64.1714C203.608 62.2168 200.957 61.1187 198.193 61.1187H181.487V73.2737C181.487 75.5785 180.571 77.7888 178.941 79.4185C177.312 81.0482 175.101 81.9637 172.797 81.9637H160.642" fill="#27C8E5"/>
<path d="M160.655 71.5275V69.795C160.653 68.6551 160.876 67.5261 161.312 66.4726C161.747 65.4191 162.386 64.4619 163.192 63.6559C163.998 62.8499 164.955 62.2109 166.009 61.7755C167.062 61.3401 168.191 61.1169 169.331 61.1187H181.486V44.4125C181.486 41.6483 180.388 38.9973 178.434 37.0427C176.479 35.0881 173.828 33.99 171.064 33.99C168.3 33.99 165.649 35.0881 163.694 37.0427C161.739 38.9973 160.641 41.6483 160.641 44.4125V61.1187H143.963C141.198 61.1187 138.547 62.2168 136.593 64.1714C134.638 66.126 133.54 68.777 133.54 71.5412C133.54 74.3055 134.638 76.9565 136.593 78.9111C138.547 80.8657 141.198 81.9637 143.963 81.9637H160.655V71.5275Z" fill="#B630F1"/>
<path d="M169.332 61.1188C168.192 61.1169 167.063 61.3401 166.009 61.7755C164.956 62.2109 163.998 62.8499 163.192 63.6559C162.386 64.462 161.747 65.4191 161.312 66.4726C160.877 67.5261 160.653 68.6551 160.655 69.795V81.9637H172.81C175.113 81.9601 177.319 81.043 178.946 79.4137C180.573 77.7844 181.487 75.5761 181.487 73.2737V61.1188H169.318H169.332Z" fill="#3D37AC"/>
</g>
<defs>
<clipPath id="clip0_991_60001">
<rect width="175.464" height="143.069" fill="white" transform="translate(33)"/>
</clipPath>
</defs>
</svg>
