<svg width="1920" height="1080" viewBox="0 0 1920 1080" fill="none" xmlns="http://www.w3.org/2000/svg">
<rect width="1920" height="1080" fill="#EDEDF2"/>
<path fill-rule="evenodd" clip-rule="evenodd" d="M1149.71 729.361H770.288C754.303 729.348 738.976 723.204 727.673 712.278C716.37 701.353 710.014 686.538 710 671.087V408.274C710.028 392.827 716.388 378.02 727.688 367.098C738.989 356.175 754.307 350.027 770.288 350H1149.71C1165.69 350.027 1181.01 356.175 1192.31 367.098C1203.61 378.02 1209.97 392.827 1210 408.274V671.087C1209.97 686.534 1203.61 701.341 1192.31 712.263C1181.01 723.186 1165.69 729.334 1149.71 729.361ZM770.288 375.227C761.225 375.24 752.537 378.726 746.128 384.921C739.719 391.116 736.113 399.514 736.099 408.274V594.095L784.479 545.609C788.183 541.855 792.638 538.866 797.573 536.823C802.507 534.781 807.819 533.728 813.187 533.728C818.555 533.728 823.868 534.781 828.802 536.823C833.737 538.866 838.192 541.855 841.896 545.609L902.55 606.658L1003.66 504.894C1007.36 501.139 1011.82 498.149 1016.75 496.107C1021.68 494.064 1027 493.011 1032.36 493.011C1037.73 493.011 1043.05 494.064 1047.98 496.107C1052.91 498.149 1057.37 501.139 1061.07 504.894L1183.9 628.698V408.274C1183.89 399.514 1180.28 391.116 1173.87 384.921C1167.46 378.726 1158.78 375.24 1149.71 375.227H770.288ZM803.27 562.814L736.099 630.371V671.087C736.113 679.847 739.719 688.246 746.128 694.44C752.537 700.635 761.225 704.121 770.288 704.134H1149.71C1158.78 704.121 1167.46 700.635 1173.87 694.44C1180.28 688.246 1183.89 679.847 1183.9 671.087V664.634L1042.44 522.047C1041.14 520.778 1039.6 519.771 1037.9 519.083C1036.19 518.395 1034.37 518.041 1032.52 518.041C1030.68 518.041 1028.85 518.395 1027.15 519.083C1025.44 519.771 1023.9 520.778 1022.6 522.047L902.55 642.783L823.053 562.814C821.768 561.534 820.231 560.516 818.532 559.821C816.833 559.126 815.006 558.768 813.161 558.768C811.316 558.768 809.49 559.126 807.791 559.821C806.092 560.516 804.555 561.534 803.27 562.814ZM811.57 491.434C818.821 496.107 827.344 498.596 836.059 498.586C847.73 498.559 858.914 494.062 867.162 486.081C875.409 478.099 880.048 467.284 880.062 456.003C880.062 447.579 877.477 439.344 872.633 432.34C867.79 425.336 860.907 419.878 852.854 416.657C844.801 413.435 835.94 412.595 827.393 414.242C818.846 415.889 810.996 419.949 804.837 425.91C798.678 431.87 794.486 439.463 792.792 447.726C791.098 455.99 791.978 464.554 795.321 472.334C798.663 480.114 804.318 486.761 811.57 491.434ZM826.069 441.547C829.029 439.646 832.506 438.637 836.059 438.647C840.808 438.674 845.354 440.512 848.707 443.763C852.06 447.013 853.949 451.412 853.963 456.003C853.963 459.438 852.909 462.795 850.933 465.651C848.958 468.506 846.15 470.73 842.866 472.042C839.582 473.355 835.969 473.695 832.485 473.022C829 472.348 825.801 470.69 823.292 468.258C820.783 465.825 819.077 462.728 818.39 459.358C817.703 455.987 818.066 452.496 819.433 449.326C820.8 446.155 823.11 443.448 826.069 441.547Z" fill="#AEB0B8"/>
</svg>
