<svg width="16" height="16" viewBox="0 0 16 16" fill="none" xmlns="http://www.w3.org/2000/svg">
<path fill-rule="evenodd" clip-rule="evenodd" d="M12.8112 7.14875C10.3937 5.71312 6.40625 5.58125 4.09812 6.28188C3.7275 6.39438 3.33562 6.185 3.22375 5.81437C3.11125 5.44375 3.32 5.05188 3.69125 4.93937C6.34062 4.135 10.7444 4.29063 13.5275 5.9425C13.8606 6.14062 13.97 6.57063 13.7725 6.90375C13.575 7.23688 13.1444 7.34687 12.8112 7.14875ZM12.7325 9.27563C12.5625 9.55062 12.2031 9.63688 11.9281 9.46813C9.9125 8.22937 6.83938 7.87 4.45438 8.59375C4.14563 8.6875 3.81875 8.51312 3.725 8.20437C3.63188 7.895 3.80625 7.56938 4.115 7.475C6.83875 6.64875 10.225 7.04875 12.54 8.47188C12.815 8.64062 12.9012 9.00125 12.7325 9.27563ZM11.8144 11.3175C11.68 11.5388 11.3919 11.6081 11.1719 11.4731C9.41063 10.3969 7.19375 10.1537 4.58313 10.75C4.33188 10.8075 4.08125 10.65 4.02375 10.3988C3.96625 10.1469 4.12312 9.89625 4.375 9.83875C7.23187 9.18563 9.6825 9.46688 11.6594 10.675C11.88 10.8094 11.9494 11.0975 11.8144 11.3175ZM8.375 0.5C4.23313 0.5 0.875 3.85813 0.875 8C0.875 12.1425 4.23313 15.5 8.375 15.5C12.5175 15.5 15.875 12.1425 15.875 8C15.875 3.85813 12.5175 0.5 8.375 0.5Z" fill="#65D36E"/>
</svg>
