<svg width="18" height="18" viewBox="0 0 18 18" fill="none" xmlns="http://www.w3.org/2000/svg">
<path d="M7.5 13.8751C8.53537 13.8751 9.375 13.0355 9.375 12.0001V11.6251V11.2501V2.27637H11.328C11.3164 2.22387 11.301 2.17287 11.2916 2.11924H11.2913C11.2748 2.02624 11.2627 1.93362 11.2541 1.83949V1.52637H8.625V10.5001V10.8751V11.2501C8.625 12.2855 7.78537 13.1251 6.75 13.1251C6.426 13.1251 6.12562 13.0355 5.85938 12.8907C6.17737 13.4742 6.78863 13.8751 7.5 13.8751Z" fill="#75F1EC"/>
<path d="M12.6444 4.27774C12.3455 3.86749 12.1329 3.39012 12.0418 2.86924H12.0414C12.0249 2.77624 12.0129 2.68362 12.0043 2.58949V2.27637H11.3281C11.5123 3.09462 11.9885 3.79962 12.6444 4.27774Z" fill="#EB4357"/>
<path d="M6.75 9.375C5.71463 9.375 4.875 10.2146 4.875 11.25C4.875 11.9614 5.27588 12.5726 5.85938 12.8906C5.71463 12.6244 5.625 12.324 5.625 12C5.625 10.9646 6.46463 10.125 7.5 10.125C7.62862 10.125 7.75388 10.1381 7.875 10.1629V7.51913C7.75087 7.50863 7.62675 7.5 7.5 7.5C7.37325 7.5 7.24913 7.50862 7.125 7.51875V9.4125C7.00388 9.38813 6.87862 9.375 6.75 9.375Z" fill="#EB4358"/>
<path d="M13.6002 5.16872C13.9253 5.37159 14.2823 5.50922 14.6524 5.59284V5.45184V5.45109V4.93322C14.0149 4.93434 13.3909 4.75584 12.8502 4.41834C12.7804 4.37484 12.7148 4.32572 12.6484 4.27734C12.9061 4.63172 13.2274 4.93622 13.6002 5.16872Z" fill="#74F1EC"/>
<path d="M7.125 7.51875V6.76875C7.00087 6.75862 6.87675 6.75 6.75 6.75C4.26487 6.75 2.25 8.76487 2.25 11.25C2.25 12.684 2.92313 13.9582 3.96788 14.7821C3.36338 14.0164 3 13.0515 3 12C3 9.64125 4.81575 7.71 7.125 7.51875Z" fill="#75F2EA"/>
<path d="M14.6491 5.59277V7.36765C13.3835 7.36765 12.2113 6.96602 11.2546 6.2824L11.2558 11.25L11.2505 11.2433C11.2505 11.2455 11.2509 11.2478 11.2509 11.25C11.2509 13.7351 9.236 15.75 6.75088 15.75C5.69938 15.75 4.7345 15.3866 3.96875 14.7821C4.79263 15.8269 6.06688 16.5 7.50088 16.5C9.986 16.5 12.0009 14.4851 12.0009 12C12.0009 11.9978 12.0005 11.9955 12.0005 11.9933L12.0058 12L12.005 7.03202C12.9616 7.71565 14.1339 8.11727 15.3995 8.11727V6.20177V6.20102V5.68315C15.1453 5.6839 14.8948 5.6479 14.6491 5.59277Z" fill="#EB4359"/>
<path d="M11.25 11.25C11.25 11.2478 11.2496 11.2455 11.2496 11.2433L11.2549 11.25L11.2541 6.282C12.2107 6.96563 13.383 7.36725 14.6486 7.36725V5.59238C14.2785 5.50875 13.9215 5.37113 13.5964 5.16825C13.2236 4.93575 12.9022 4.63125 12.6446 4.27725C11.9884 3.79913 11.5125 3.09413 11.3284 2.27588H9.375V11.25V11.625V12C9.375 13.0354 8.53537 13.875 7.5 13.875C6.78862 13.875 6.17737 13.4741 5.85937 12.8906C5.27587 12.5726 4.875 11.9614 4.875 11.25C4.875 10.2146 5.71462 9.375 6.75 9.375C6.87862 9.375 7.00387 9.38813 7.125 9.41288V7.51913C4.81575 7.71 3 9.64125 3 12C3 13.0515 3.36338 14.0164 3.96787 14.7821C4.73362 15.3866 5.6985 15.75 6.75 15.75C9.23512 15.75 11.25 13.7351 11.25 11.25Z" fill="black"/>
</svg>
