<svg width="16" height="13" viewBox="0 0 16 13" fill="none" xmlns="http://www.w3.org/2000/svg">
<path d="M15.875 1.44313C15.3231 1.68813 14.73 1.85312 14.1075 1.9275C14.7431 1.54687 15.2312 0.94375 15.4606 0.225C14.8663 0.5775 14.2075 0.83375 13.5062 0.971875C12.9456 0.37375 12.145 0 11.26 0C9.27312 0 7.81313 1.85375 8.26188 3.77813C5.705 3.65 3.4375 2.425 1.91937 0.563125C1.11313 1.94625 1.50125 3.75562 2.87125 4.67187C2.3675 4.65562 1.8925 4.5175 1.47812 4.28688C1.44437 5.7125 2.46625 7.04625 3.94625 7.34312C3.51312 7.46062 3.03875 7.48813 2.55625 7.39563C2.9475 8.61812 4.08375 9.5075 5.43125 9.5325C4.1375 10.5469 2.5075 11 0.875 10.8075C2.23687 11.6806 3.855 12.19 5.5925 12.19C11.3062 12.19 14.5344 7.36438 14.3394 3.03625C14.9406 2.60187 15.4625 2.06 15.875 1.44313Z" fill="#1F90E1"/>
</svg>
