<svg width="21" height="18" viewBox="0 0 21 18" fill="none" xmlns="http://www.w3.org/2000/svg">
    <defs>
        <linearGradient id="paint0_linear_2776_48847" x1="0.898437" y1="1.15283" x2="19.4287"
            y2="22.9092" gradientUnits="userSpaceOnUse">
            <stop stop-color="#B100FF" />
            <stop offset="1" stop-color="#59C0FB" />
        </linearGradient>
    </defs>
    <path
        d="M4.95775 1.15283C4.61603 1.15283 4.29447 1.31455 4.09072 1.58889L1.11141 5.60032C0.810117 6.00599 0.830394 6.56635 1.16022 6.94919L9.80022 16.9778C10.0054 17.2159 10.3041 17.3528 10.6184 17.3528C10.9328 17.3528 11.2315 17.2159 11.4367 16.9778L20.0767 6.94919C20.4065 6.56635 20.4268 6.00599 20.1255 5.60032L17.1462 1.58889C16.9424 1.31455 16.6208 1.15283 16.2791 1.15283H4.95775Z"
        fill="url(#paint0_linear_2776_48847)" />
    <path
        d="M4.95775 0.902832C4.53693 0.902832 4.14094 1.10199 3.89002 1.43983L0.910713 5.45125C0.539672 5.95083 0.564643 6.64091 0.97082 7.11236L9.61082 17.1409C9.86347 17.4342 10.2314 17.6028 10.6184 17.6028C11.0055 17.6028 11.3734 17.4342 11.6261 17.1409L20.2661 7.11236C20.6722 6.64091 20.6972 5.95083 20.3262 5.45125L17.3469 1.43983C17.0959 1.10199 16.6999 0.902832 16.2791 0.902832H4.95775Z"
        stroke="#C2C4CA" stroke-opacity="0.7" stroke-width="0.5" stroke-linejoin="round" />
</svg>
