<svg width="24" height="24" viewBox="0 0 24 24" fill="none" xmlns="http://www.w3.org/2000/svg">
<path fill-rule="evenodd" clip-rule="evenodd" d="M12.0004 3.4C11.2769 3.4 10.6904 3.98651 10.6904 4.71C10.6904 5.43349 11.2769 6.02 12.0004 6.02C15.3031 6.02 17.9804 8.69734 17.9804 12C17.9804 15.3027 15.3031 17.98 12.0004 17.98C10.0744 17.98 8.36142 17.0709 7.2656 15.6533C6.4845 14.6427 6.02039 13.3774 6.02039 12C6.02039 11.2765 5.43388 10.69 4.71039 10.69C3.9869 10.69 3.40039 11.2765 3.40039 12C3.40039 13.9775 4.06941 15.8024 5.19268 17.2556C6.76327 19.2875 9.22882 20.6 12.0004 20.6C16.75 20.6 20.6004 16.7497 20.6004 12C20.6004 7.25035 16.75 3.4 12.0004 3.4Z" fill="#3F4252"/>
</svg>
