<svg width="24" height="24" viewBox="0 0 24 24" fill="none" xmlns="http://www.w3.org/2000/svg">
<path d="M7.62749 19.321H9.69517C10.531 19.321 10.9622 18.8898 10.9622 18.0539V5.94701C10.9622 5.09354 10.531 4.6888 9.69517 4.68H7.62749C6.79162 4.68 6.36048 5.11113 6.36048 5.94701V18.0539C6.35168 18.8898 6.78282 19.321 7.62749 19.321ZM14.3145 19.321H16.3733C17.2092 19.321 17.6404 18.8898 17.6404 18.0539V5.94701C17.6404 5.09354 17.2092 4.68 16.3733 4.68H14.3145C13.4698 4.68 13.0475 5.11113 13.0475 5.94701V18.0539C13.0475 18.8898 13.4698 19.321 14.3145 19.321Z" fill="#3F4252"/>
</svg>
