<svg width="24" height="24" viewBox="0 0 24 24" fill="none" xmlns="http://www.w3.org/2000/svg">
<path d="M12 16.2176C12.3157 16.2086 12.6043 16.0913 12.8388 15.8388L19.6933 8.82187C19.8918 8.62345 20 8.37091 20 8.07328C20 7.47802 19.531 7 18.9357 7C18.6471 7 18.3675 7.11725 18.1601 7.32469L12.009 13.6471L5.83991 7.32469C5.63247 7.12627 5.36189 7 5.06426 7C4.469 7 4 7.47802 4 8.07328C4 8.37091 4.10823 8.62345 4.30665 8.82187L11.1702 15.8388C11.4138 16.0913 11.6843 16.2176 12 16.2176Z" fill="#3F4252"/>
</svg>
