<svg width="24" height="24" viewBox="0 0 24 24" fill="none" xmlns="http://www.w3.org/2000/svg">
<path d="M18 3H6C4.9 3 4 3.9 4 5V19C4 20.1 4.9 21 6 21H18C19.1 21 20 20.1 20 19V5C20 3.9 19.1 3 18 3ZM16 12H8C7.45 12 7 11.55 7 11C7 10.45 7.45 10 8 10H16C16.55 10 17 10.45 17 11C17 11.55 16.55 12 16 12ZM12 16H8C7.45 16 7 15.55 7 15C7 14.45 7.45 14 8 14H12C12.55 14 13 14.45 13 15C13 15.55 12.55 16 12 16ZM16 8H8C7.45 8 7 7.55 7 7C7 6.45 7.45 6 8 6H16C16.55 6 17 6.45 17 7C17 7.55 16.55 8 16 8Z" fill="#3F4252"/>
</svg>
