<svg width="32" height="24" viewBox="0 0 32 24" fill="none" xmlns="http://www.w3.org/2000/svg">
<path fill-rule="evenodd" clip-rule="evenodd" d="M19.5 12C19.5 16.9265 15.4285 21 10.4957 21C5.57153 21 1.5 16.9265 1.5 12C1.5 7.0735 5.56283 3 10.4869 3C15.4198 3 19.5 7.0735 19.5 12ZM3.30957 12C3.30957 15.9952 6.50242 19.207 10.4957 19.207C14.4889 19.207 17.7078 15.9952 17.6991 12C17.6904 8.00484 14.4802 4.80174 10.4869 4.80174C6.50242 4.80174 3.30957 8.00484 3.30957 12ZM8.92098 15.4294H8.00749C7.5638 15.4294 7.3463 15.1857 7.3463 14.8114V9.18859C7.3463 8.82302 7.5638 8.5706 8.00749 8.5706H8.92098C9.36467 8.5706 9.58217 8.82302 9.58217 9.18859V14.8114C9.58217 15.1857 9.36467 15.4294 8.92098 15.4294ZM12.9838 15.4294H12.079C11.6353 15.4294 11.4091 15.1857 11.4091 14.8114V9.18859C11.4091 8.82302 11.6353 8.5706 12.079 8.5706H12.9838C13.4188 8.5706 13.6363 8.82302 13.6363 9.18859V14.8114C13.6363 15.1857 13.4188 15.4294 12.9838 15.4294ZM25.5 17L20.4998 17C21.2517 15.4999 21.6758 13.8004 21.6758 12C21.6758 10.1996 21.2517 8.50013 20.4998 7L25.5 7C28.2614 7 30.5 9.23858 30.5 12C30.5 14.7614 28.2614 17 25.5 17Z" fill="#3F4252"/>
</svg>
