<svg width="32" height="24" viewBox="0 0 32 24" fill="none" xmlns="http://www.w3.org/2000/svg">
<path fill-rule="evenodd" clip-rule="evenodd" d="M30.5 12C30.5 16.9265 26.4285 21 21.4956 21C16.5715 21 12.5 16.9265 12.5 12C12.5 7.0735 16.5628 3 21.4869 3C26.4198 3 30.5 7.0735 30.5 12ZM19.7992 15.5687L25.0104 12.5135C25.3932 12.2872 25.3845 11.7389 25.0104 11.5126L19.7992 8.44004C19.399 8.20503 18.877 8.40522 18.877 8.84913V15.1683C18.877 15.6035 19.3729 15.8211 19.7992 15.5687ZM6.5 7H11.6994C10.9326 8.50014 10.5 10.1996 10.5 12C10.5 13.8004 10.9326 15.4999 11.6994 17H6.5C3.73858 17 1.5 14.7614 1.5 12C1.5 9.23858 3.73858 7 6.5 7Z" fill="#3F4252"/>
</svg>
