<svg width="32" height="24" viewBox="0 0 32 24" fill="none" xmlns="http://www.w3.org/2000/svg">
<path d="M29.2857 7.52C29.0714 7.52 28.8827 7.59653 28.648 7.73428L22.6224 11.219C22.1837 11.4741 22 11.6731 22 11.9945C22 12.3159 22.1837 12.5098 22.6224 12.77L28.648 16.2547C28.8827 16.3924 29.0714 16.469 29.2857 16.469C29.7041 16.469 30 16.1476 30 15.6424L30 8.34653C30 7.83632 29.7041 7.52 29.2857 7.52Z" fill="#3F4252"/>
<path d="M19.2857 7.52C19.0714 7.52 18.8827 7.59653 18.648 7.73428L12.6224 11.219C12.1837 11.4741 12 11.6731 12 11.9945C12 12.3159 12.1837 12.5098 12.6224 12.77L18.648 16.2547C18.8827 16.3924 19.0714 16.469 19.2857 16.469C19.7041 16.469 20 16.1476 20 15.6424L20 8.34653C20 7.83632 19.7041 7.52 19.2857 7.52Z" fill="#3F4252"/>
<path d="M9.28572 7.52C9.07143 7.52 8.88265 7.59653 8.64796 7.73428L2.62245 11.219C2.18367 11.4741 2 11.6731 2 11.9945C2 12.3159 2.18367 12.5098 2.62245 12.77L8.64796 16.2547C8.88265 16.3924 9.07143 16.469 9.28571 16.469C9.70408 16.469 10 16.1476 10 15.6424L10 8.34653C10 7.83632 9.70408 7.52 9.28572 7.52Z" fill="#3F4252"/>
</svg>
