<svg width="24" height="24" viewBox="0 0 24 24" fill="none" xmlns="http://www.w3.org/2000/svg">
<path d="M7.52441 22.5977C7.89355 22.5977 8.16602 22.4219 8.60547 22.0264L11.8486 19.0996L17.5967 19.1084C20.2422 19.1084 21.7275 17.5791 21.7275 14.9688V8.13965C21.7275 5.5293 20.2422 4 17.5967 4H6.39062C3.75391 4 2.25977 5.5293 2.25977 8.13965V14.9688C2.25977 17.5879 3.79785 19.0996 6.3291 19.0996H6.68066V21.6484C6.68066 22.2285 6.98828 22.5977 7.52441 22.5977ZM7.34863 9.15918C7.04102 9.15918 6.78613 8.9043 6.78613 8.5791C6.78613 8.27148 7.04102 8.0166 7.34863 8.0166H16.5508C16.8672 8.0166 17.1221 8.27148 17.1221 8.5791C17.1221 8.9043 16.8672 9.15918 16.5508 9.15918H7.34863ZM7.34863 12.0684C7.04102 12.0684 6.78613 11.8047 6.78613 11.4795C6.78613 11.1807 7.04102 10.917 7.34863 10.917H16.5508C16.8672 10.917 17.1221 11.1719 17.1221 11.4795C17.1221 11.8047 16.8672 12.0684 16.5508 12.0684H7.34863ZM7.34863 14.9688C7.04102 14.9688 6.78613 14.7051 6.78613 14.3975C6.78613 14.0723 7.04102 13.8174 7.34863 13.8174H13.3516C13.668 13.8174 13.9229 14.0723 13.9229 14.3975C13.9229 14.7051 13.668 14.9688 13.3516 14.9688H7.34863Z" fill="#3F4252"/>
</svg>
