<svg width="24" height="24" viewBox="0 0 24 24" fill="none" xmlns="http://www.w3.org/2000/svg">
<path d="M5.27554 20.9484C5.62229 20.9484 5.88648 20.7833 6.29928 20.4035L8.63571 18.257C8.17338 17.8854 7.77709 17.258 7.77709 15.9783V10.1662C7.77709 7.56553 9.37049 6.00516 11.9711 6.00516H17.9154L17.9071 5.74923C17.7585 4.1063 16.6687 3 14.7038 3H3.22807C1.24665 3 0 4.15583 0 6.17028V14.4427C0 16.4324 1.22188 17.6543 3.17028 17.6543H4.49123V20.0485C4.49123 20.5934 4.78019 20.9484 5.27554 20.9484ZM19.1868 22.1373C19.6904 22.1373 19.9794 21.7822 19.9794 21.2374V18.8431H20.8297C22.7781 18.8431 24 17.6213 24 15.6316V10.3808C24 8.36636 22.7534 7.21053 20.7719 7.21053H12.2188C10.1631 7.21053 8.99071 8.3581 8.99071 10.4138V15.6316C8.99071 17.6378 10.1713 18.8431 12.2188 18.8431H15.1249L18.1713 21.5924C18.5841 21.9721 18.84 22.1373 19.1868 22.1373Z" fill="#3F4252"/>
</svg>
