<svg width="24" height="24" viewBox="0 0 24 24" fill="none" xmlns="http://www.w3.org/2000/svg">
<path d="M5.6087 20.894C6.07337 20.894 6.48098 20.6984 7.04348 20.2092L9.66033 17.8777C10.2636 18.5054 11.1685 18.8397 12.3016 18.8397H15.0897L17.8043 21.1712C18.3424 21.6277 18.7255 21.8804 19.1658 21.8804C19.8179 21.8804 20.2011 21.4158 20.2011 20.7065V18.8397H20.5761C22.6304 18.8397 24 17.5842 24 15.4728V10.4918C24 8.34783 22.606 7.05978 20.5109 7.05978H19.0924V6.52989C19.0924 4.3125 17.731 3 15.4973 3H3.59511C1.42663 3 0 4.3125 0 6.52989V14.1603C0 16.3451 1.40217 17.6413 3.52989 17.6413H4.55707V19.7283C4.55707 20.4457 4.94837 20.894 5.6087 20.894ZM6.0163 16.8424C6.0163 16.3533 5.71467 16.1005 5.30707 16.1005H3.79076C2.4375 16.1005 1.62228 15.3424 1.62228 13.9321V6.70924C1.62228 5.29891 2.44565 4.53261 3.79076 4.53261H15.2935C16.6467 4.53261 17.462 5.29891 17.462 6.70924V7.05978H12.3016C10.1332 7.05978 8.8125 8.34783 8.8125 10.4918V15.4728C8.8125 15.8152 8.84511 16.125 8.91033 16.4185L6.0163 19.125V16.8424ZM18.75 20.1114L16.1984 17.7962C15.8397 17.4701 15.538 17.3234 15.0571 17.3234H12.4728C11.1929 17.3234 10.4185 16.6141 10.4185 15.2609V10.6467C10.4185 9.30978 11.1929 8.58424 12.4728 8.58424H20.3315C21.6196 8.58424 22.394 9.30978 22.394 10.6467V15.2609C22.394 16.606 21.6114 17.3234 20.3315 17.3234H19.4511C19.0516 17.3234 18.75 17.5679 18.75 18.0571V20.1114Z" fill="#3F4252"/>
</svg>
