<svg width="24" height="24" viewBox="0 0 24 24" fill="none" xmlns="http://www.w3.org/2000/svg">
<path d="M7.81445 22.5449C8.31543 22.5449 8.68457 22.2988 9.29102 21.7627L12.3057 19.1084H17.5967C20.2422 19.1084 21.7275 17.5791 21.7275 14.9688V8.13965C21.7275 5.5293 20.2422 4 17.5967 4H6.39062C3.75391 4 2.25977 5.5293 2.25977 8.13965V14.9688C2.25977 17.5879 3.79785 19.1084 6.3291 19.1084H6.68945V21.2617C6.68945 22.0439 7.10254 22.5449 7.81445 22.5449ZM8.25391 20.5762V18.0713C8.25391 17.5527 8.02539 17.3506 7.5332 17.3506H6.45215C4.7998 17.3506 4.00879 16.5156 4.00879 14.916V8.19238C4.00879 6.59277 4.7998 5.75781 6.45215 5.75781H17.5439C19.1875 5.75781 19.9785 6.59277 19.9785 8.19238V14.916C19.9785 16.5156 19.1875 17.3506 17.5439 17.3506H12.209C11.6729 17.3506 11.4092 17.4385 11.04 17.8252L8.25391 20.5762Z" fill="#3F4252"/>
</svg>
