<svg width="24" height="24" viewBox="0 0 24 24" fill="none" xmlns="http://www.w3.org/2000/svg">
<path d="M18.9304 7.12C18.4504 7.12 18.0604 7.53 18.0604 8.03V17.95C18.0604 18.23 17.8504 18.46 17.5904 18.46H8.27039C7.79039 18.46 7.40039 18.87 7.40039 19.37C7.40039 19.87 7.79039 20.28 8.27039 20.28H18.2704C19.1204 20.28 19.8004 19.55 19.8004 18.66V8.03C19.8004 7.53 19.4104 7.12 18.9304 7.12Z" fill="#3F4252"/>
<path d="M16.4 15.53V5.62C16.4 4.73 15.71 4 14.87 4H5.53C4.69 4 4 4.73 4 5.62V15.54C4 16.43 4.69 17.16 5.53 17.16H14.86C15.71 17.15 16.4 16.42 16.4 15.53Z" fill="#3F4252"/>
</svg>
