<svg width="24" height="24" viewBox="0 0 24 24" fill="none" xmlns="http://www.w3.org/2000/svg">
<path d="M5.25538 20.3054H18.7532C20.1133 20.3054 21 19.2811 21 18.0501C21 17.6713 20.9053 17.2925 20.7073 16.9396L13.9498 4.85351C13.5194 4.07876 12.7704 3.7 12.0043 3.7C11.2382 3.7 10.4806 4.08737 10.0588 4.85351L3.30129 16.9482C3.1033 17.3011 3 17.6713 3 18.0501C3 19.2811 3.89527 20.3054 5.25538 20.3054ZM12.0129 14.2968C11.462 14.2968 11.1521 13.9869 11.1263 13.436L10.9971 9.36427C10.9713 8.78752 11.3931 8.38292 12.0043 8.38292C12.6069 8.38292 13.0373 8.78752 13.0115 9.36427L12.8824 13.4274C12.8565 13.9955 12.5466 14.2968 12.0129 14.2968ZM12.0129 17.3184C11.3931 17.3184 10.8852 16.8966 10.8852 16.294C10.8852 15.6914 11.3845 15.261 12.0129 15.261C12.6413 15.261 13.132 15.6914 13.132 16.294C13.132 16.9052 12.6327 17.3184 12.0129 17.3184Z" fill="#3F4252"/>
</svg>
