<svg width="24" height="24" viewBox="0 0 24 24" fill="none" xmlns="http://www.w3.org/2000/svg">
<path d="M19 12V17C19 17.55 18.55 18 18 18H6C5.45 18 5 17.55 5 17V12C5 11.45 4.55 11 4 11C3.45 11 3 11.45 3 12V18C3 19.1 3.9 20 5 20H19C20.1 20 21 19.1 21 18V12C21 11.45 20.55 11 20 11C19.45 11 19 11.45 19 12ZM13 11.67L14.88 9.79C15.27 9.4 15.9 9.4 16.29 9.79C16.68 10.18 16.68 10.81 16.29 11.2L12.7 14.79C12.31 15.18 11.68 15.18 11.29 14.79L7.7 11.2C7.31 10.81 7.31 10.18 7.7 9.79C8.09 9.4 8.72 9.4 9.11 9.79L11 11.67V3C11 2.45 11.45 2 12 2C12.55 2 13 2.45 13 3V11.67Z" fill="#3F4252"/>
</svg>
