<svg width="24" height="24" viewBox="0 0 24 24" fill="none" xmlns="http://www.w3.org/2000/svg">
<path d="M11.9957 21C16.9285 21 21 16.9265 21 12C21 7.0735 16.9198 3 11.9869 3C7.06283 3 3 7.0735 3 12C3 16.9265 7.07153 21 11.9957 21ZM11.9957 7.35203C12.4741 7.35203 12.8221 7.68279 12.8221 8.1528V12.3917L12.7351 14.2544L13.5529 13.2273L14.5447 12.1828C14.6839 12.0348 14.884 11.9478 15.1015 11.9478C15.5365 11.9478 15.8584 12.2611 15.8584 12.6876C15.8584 12.9139 15.7888 13.0793 15.6322 13.2447L12.6568 16.2737C12.4567 16.4739 12.2566 16.5783 11.9957 16.5783C11.7521 16.5783 11.552 16.4826 11.3519 16.2737L8.35911 13.2447C8.21121 13.0793 8.14161 12.9139 8.14161 12.6876C8.14161 12.2611 8.46351 11.9478 8.8985 11.9478C9.116 11.9478 9.31609 12.0348 9.45529 12.1828L10.4558 13.236L11.2649 14.2456L11.1779 12.3917V8.1528C11.1779 7.68279 11.5259 7.35203 11.9957 7.35203Z" fill="#3F4252"/>
</svg>
