<svg width="24" height="24" viewBox="0 0 24 24" fill="none" xmlns="http://www.w3.org/2000/svg">
<path d="M18 11.5049C18 12.0474 18.45 12.4913 19 12.4913H21C21.55 12.4913 22 12.0474 22 11.5049C22 10.9624 21.55 10.5186 21 10.5186H19C18.45 10.5186 18 10.9624 18 11.5049Z" fill="#3F4252"/>
<path d="M16.59 16.2591C16.26 16.693 16.35 17.2947 16.79 17.6103C17.32 17.995 17.88 18.4093 18.41 18.8038C18.85 19.1293 19.47 19.0405 19.79 18.6065C19.79 18.5967 19.8 18.5967 19.8 18.5868C20.13 18.1528 20.04 17.5413 19.6 17.2257C19.07 16.8311 18.51 16.4169 17.99 16.0322C17.55 15.7067 16.93 15.8053 16.6 16.2393C16.6 16.2492 16.59 16.2591 16.59 16.2591Z" fill="#3F4252"/>
<path d="M19.81 4.41321C19.81 4.40334 19.8 4.40334 19.8 4.39348C19.47 3.95949 18.85 3.87072 18.42 4.19621C17.89 4.59075 17.32 5.005 16.8 5.39954C16.36 5.72503 16.28 6.33655 16.61 6.76068C16.61 6.77054 16.62 6.77054 16.62 6.7804C16.95 7.21439 17.56 7.30316 18 6.97767C18.53 6.593 19.09 6.16888 19.62 5.77434C20.05 5.45872 20.13 4.84719 19.81 4.41321Z" fill="#3F4252"/>
<path d="M8 8.54594H4C2.9 8.54594 2 9.43363 2 10.5186V12.4913C2 13.5762 2.9 14.4639 4 14.4639H5V17.4229C5 17.9654 5.45 18.4093 6 18.4093C6.55 18.4093 7 17.9654 7 17.4229V14.4639H8L13 17.4229V5.58694L8 8.54594Z" fill="#3F4252"/>
<path d="M15.5 11.5049C15.5 10.1931 14.92 9.00951 14 8.20072V14.7993C14.92 14.0004 15.5 12.8168 15.5 11.5049Z" fill="#3F4252"/>
</svg>
