<svg width="14" height="16" viewBox="0 0 14 16" fill="none" xmlns="http://www.w3.org/2000/svg">
<path d="M1.02246 15.0239C1.396 15.0239 1.70361 14.7236 1.70361 14.3428V10.3364C1.90869 10.2632 2.52393 10.0435 3.4541 10.0435C6.12012 10.0435 7.90723 11.3765 10.4854 11.3765C11.6133 11.3765 12.1333 11.2373 12.6973 10.9736C13.2246 10.7393 13.5322 10.3071 13.5322 9.6333V2.33838C13.5322 1.85498 13.1587 1.55469 12.6606 1.55469C12.2432 1.55469 11.584 1.83301 10.4121 1.83301C7.86328 1.83301 6.03955 0.5 3.38086 0.5C2.2749 0.5 1.76953 0.63916 1.17627 0.902832C0.65625 1.14453 0.333984 1.52539 0.333984 2.19189V14.3428C0.333984 14.7163 0.648926 15.0239 1.02246 15.0239Z" fill="#3F4252"/>
</svg>
