<svg width="32" height="24" viewBox="0 0 32 24" fill="none" xmlns="http://www.w3.org/2000/svg">
<path d="M2.71429 16.469C2.92857 16.469 3.11735 16.3925 3.35204 16.2547L9.37755 12.77C9.81633 12.5149 10 12.3159 10 11.9945C10 11.6731 9.81633 11.4792 9.37755 11.219L3.35204 7.73429C3.11735 7.59653 2.92857 7.52 2.71429 7.52C2.29592 7.52 2 7.84143 2 8.34653V15.6425C2 16.1527 2.29592 16.469 2.71429 16.469Z" fill="#3F4252"/>
<path d="M12.7143 16.469C12.9286 16.469 13.1173 16.3925 13.352 16.2547L19.3776 12.77C19.8163 12.5149 20 12.3159 20 11.9945C20 11.6731 19.8163 11.4792 19.3776 11.219L13.352 7.73429C13.1173 7.59653 12.9286 7.52 12.7143 7.52C12.2959 7.52 12 7.84143 12 8.34653V15.6425C12 16.1527 12.2959 16.469 12.7143 16.469Z" fill="#3F4252"/>
<path d="M22.7143 16.469C22.9286 16.469 23.1173 16.3925 23.352 16.2547L29.3776 12.77C29.8163 12.5149 30 12.3159 30 11.9945C30 11.6731 29.8163 11.4792 29.3776 11.219L23.352 7.73429C23.1173 7.59653 22.9286 7.52 22.7143 7.52C22.2959 7.52 22 7.84143 22 8.34653V15.6425C22 16.1527 22.2959 16.469 22.7143 16.469Z" fill="#3F4252"/>
</svg>
