<svg width="24" height="24" viewBox="0 0 24 24" fill="none" xmlns="http://www.w3.org/2000/svg">
<path d="M4.71429 16.8571H7.14286V19.2857C7.14286 19.9536 7.68929 20.5 8.35714 20.5C9.025 20.5 9.57143 19.9536 9.57143 19.2857V15.6429C9.57143 14.975 9.025 14.4286 8.35714 14.4286H4.71429C4.04643 14.4286 3.5 14.975 3.5 15.6429C3.5 16.3107 4.04643 16.8571 4.71429 16.8571ZM7.14286 7.14286H4.71429C4.04643 7.14286 3.5 7.68929 3.5 8.35714C3.5 9.025 4.04643 9.57143 4.71429 9.57143H8.35714C9.025 9.57143 9.57143 9.025 9.57143 8.35714V4.71429C9.57143 4.04643 9.025 3.5 8.35714 3.5C7.68929 3.5 7.14286 4.04643 7.14286 4.71429V7.14286ZM15.6429 20.5C16.3107 20.5 16.8571 19.9536 16.8571 19.2857V16.8571H19.2857C19.9536 16.8571 20.5 16.3107 20.5 15.6429C20.5 14.975 19.9536 14.4286 19.2857 14.4286H15.6429C14.975 14.4286 14.4286 14.975 14.4286 15.6429V19.2857C14.4286 19.9536 14.975 20.5 15.6429 20.5ZM16.8571 7.14286V4.71429C16.8571 4.04643 16.3107 3.5 15.6429 3.5C14.975 3.5 14.4286 4.04643 14.4286 4.71429V8.35714C14.4286 9.025 14.975 9.57143 15.6429 9.57143H19.2857C19.9536 9.57143 20.5 9.025 20.5 8.35714C20.5 7.68929 19.9536 7.14286 19.2857 7.14286H16.8571Z" fill="#3F4252"/>
</svg>
