<svg width="24" height="24" viewBox="0 0 24 24" fill="none" xmlns="http://www.w3.org/2000/svg">
<path d="M3.41016 10.4814C3.41016 11.457 3.97266 11.9053 4.94824 11.9053H11.1621V6.94824H9.84375C8.49902 6.94824 7.72559 6.13086 7.72559 5.17285C7.72559 4.24121 8.37598 3.66992 9.3252 3.66992C10.3359 3.66992 11.1621 4.47852 11.1621 5.71777V6.94824H12.8408V11.9053H19.0547C20.0391 11.9053 20.5928 11.457 20.5928 10.4814V8.53027C20.5928 7.44043 19.9863 6.94824 18.8877 6.94824H17.165C17.6748 6.45605 17.9824 5.78809 17.9824 5.00586C17.9824 3.24805 16.585 2 14.8359 2C13.5352 2 12.4365 2.72949 12.0059 4.03027C11.5752 2.72949 10.4678 2 9.16699 2C7.41797 2 6.02051 3.24805 6.02051 5.00586C6.02051 5.78809 6.32812 6.45605 6.83789 6.94824H5.11523C4.06055 6.94824 3.41016 7.44043 3.41016 8.53027V10.4814ZM14.6777 3.66992C15.627 3.66992 16.2773 4.24121 16.2773 5.17285C16.2773 6.13086 15.5039 6.94824 14.1592 6.94824H12.8408V5.71777C12.8408 4.47852 13.667 3.66992 14.6777 3.66992ZM4.62305 18.374C4.62305 19.8682 5.51074 20.6855 7.01367 20.6855H11.1621V12.9775H4.62305V18.374ZM12.8408 20.6855H16.9893C18.4922 20.6855 19.3799 19.8682 19.3799 18.374V12.9775H12.8408V20.6855Z" fill="#3F4252"/>
</svg>
