<svg width="24" height="24" viewBox="0 0 24 24" fill="none" xmlns="http://www.w3.org/2000/svg">
<path fill-rule="evenodd" clip-rule="evenodd" d="M9.57714 3.25577C9.85556 3.0052 10.2121 2.9 10.6016 2.9C10.9603 2.9 11.3108 3.00538 11.5779 3.24614C11.8511 3.49236 11.9893 3.83784 11.9893 4.21738C11.9893 4.36699 11.9701 4.54132 11.9425 4.6588L11.4045 7.35606H14.1911L14.8319 4.16751C14.9011 3.83761 15.0365 3.50818 15.3038 3.26255C15.5799 3.00884 15.9357 2.9 16.332 2.9C16.6907 2.9 17.0413 3.00538 17.3084 3.24614C17.5816 3.49236 17.7197 3.83784 17.7197 4.21738C17.7197 4.3673 17.7005 4.54205 17.6728 4.65953L17.1278 7.35606H19.0742C19.454 7.35606 19.7993 7.49082 20.0493 7.74838C20.2971 8.00365 20.418 8.34495 20.418 8.69981C20.418 9.11912 20.2731 9.50883 19.987 9.79494C19.7006 10.0813 19.3085 10.2281 18.8809 10.2281H16.5565L15.9149 13.4029H17.9141C18.2876 13.4029 18.631 13.5341 18.882 13.7869C19.1319 14.0387 19.2578 14.3788 19.2578 14.7379C19.2578 15.1577 19.1125 15.5471 18.8225 15.8318C18.5331 16.116 18.1391 16.2574 17.7119 16.2574H15.3436L14.6167 19.8523C14.5465 20.223 14.3788 20.549 14.0934 20.7787C13.8091 21.0076 13.4587 21.1002 13.0977 21.1002C12.7485 21.1002 12.4005 21.002 12.1338 20.7621C11.8599 20.5159 11.7275 20.1701 11.7275 19.7916C11.7275 19.6526 11.7506 19.4791 11.7708 19.3682L11.7725 19.3586L12.3987 16.2574H9.614L8.89459 19.8545L8.89429 19.856C8.81917 20.2258 8.64922 20.5501 8.36518 20.7787C8.08218 21.0066 7.73472 21.1002 7.37598 21.1002C7.02437 21.1002 6.67427 21.0031 6.40576 20.7633C6.12962 20.5168 5.99707 20.1702 5.99707 19.7916C5.99707 19.6526 6.02012 19.4791 6.04029 19.3682L6.04202 19.3586L6.66826 16.2574H4.92383C4.56146 16.2574 4.21814 16.14 3.96263 15.8922C3.70575 15.643 3.58008 15.3027 3.58008 14.94C3.58008 14.5182 3.72373 14.1263 4.01 13.8383C4.29674 13.5498 4.68947 13.4029 5.11719 13.4029H7.23938L7.88103 10.2281H6.09277C5.72407 10.2281 5.37886 10.1072 5.12422 9.8545C4.86963 9.60181 4.74902 9.26037 4.74902 8.90195C4.74902 8.4835 4.88826 8.09019 5.17249 7.79902C5.45827 7.50627 5.85247 7.35606 6.28613 7.35606H8.4528L9.10027 4.17333C9.16587 3.83145 9.30556 3.5002 9.57714 3.25577ZM10.826 10.2281L10.1844 13.4029H12.9778L13.6128 10.2281H10.826Z" fill="#3F4252"/>
</svg>
