<svg width="24" height="24" viewBox="0 0 24 24" fill="none" xmlns="http://www.w3.org/2000/svg">
<path d="M11.998 21.0858C16.9814 21.0858 21.0947 16.9725 21.0947 11.9979C21.0947 7.02328 16.9727 2.91 11.9893 2.91C7.01465 2.91 2.91016 7.02328 2.91016 11.9979C2.91016 16.9725 7.02344 21.0858 11.998 21.0858ZM11.7871 13.8084C11.2158 13.8084 10.8994 13.5448 10.8994 13.0174V12.9207C10.8994 12.0946 11.374 11.6287 12.0244 11.1717C12.7979 10.6356 13.1758 10.3455 13.1758 9.78305C13.1758 9.1766 12.71 8.7723 11.9893 8.7723C11.4619 8.7723 11.0752 9.03598 10.7852 9.48422C10.5039 9.80062 10.3721 10.0731 9.84473 10.0731C9.41406 10.0731 9.0625 9.79184 9.0625 9.35238C9.0625 9.1766 9.09766 9.0184 9.15918 8.8602C9.44922 7.99887 10.5039 7.29574 12.0771 7.29574C13.7119 7.29574 15.0918 8.16586 15.0918 9.69516C15.0918 10.7498 14.5117 11.2772 13.5977 11.8661C13.0176 12.244 12.6836 12.5604 12.6572 13.035C12.6572 13.0614 12.6484 13.1053 12.6484 13.1405C12.6221 13.5184 12.2969 13.8084 11.7871 13.8084ZM11.7783 16.6209C11.1807 16.6209 10.6885 16.1903 10.6885 15.6102C10.6885 15.0301 11.1719 14.5995 11.7783 14.5995C12.376 14.5995 12.8594 15.0301 12.8594 15.6102C12.8594 16.1991 12.3672 16.6209 11.7783 16.6209Z" fill="#3F4252"/>
</svg>
