<svg width="24" height="24" viewBox="0 0 24 24" fill="none" xmlns="http://www.w3.org/2000/svg">
<path d="M12.1 3C7.11 3 3 7.11 3 12.09C3 17.07 7.12 21.18 12.11 21.18C17.08 21.18 21.19 17.07 21.19 12.09C21.19 7.11 17.07 3 12.1 3ZM12.09 7.56C12.69 7.56 13.18 8.05 13.18 8.65C13.18 9.25 12.69 9.74 12.09 9.74C11.49 9.74 11.01 9.24 11.01 8.65C11.01 8.05 11.49 7.56 12.09 7.56ZM13.18 15.56C13.18 16.16 12.69 16.65 12.09 16.65C11.49 16.65 11 16.16 11 15.56V11.92C11 11.32 11.49 10.83 12.09 10.83C12.69 10.83 13.18 11.32 13.18 11.92V15.56Z" fill="#3F4252"/>
</svg>
