<svg width="24" height="24" viewBox="0 0 24 24" fill="none" xmlns="http://www.w3.org/2000/svg">
<path fill-rule="evenodd" clip-rule="evenodd" d="M22.5 10.115C22.5 5.64083 18.0142 2 12.5 2C6.98667 2 2.5 5.64083 2.5 10.115C2.5 14.1267 6.0575 17.4867 10.8633 18.1217C11.1892 18.1917 11.6317 18.3367 11.7442 18.615C11.845 18.8675 11.81 19.2633 11.7767 19.5192L11.6342 20.375C11.59 20.6275 11.4325 21.3633 12.5 20.9142C13.5675 20.4642 18.2592 17.5233 20.3567 15.1083C21.8058 13.5192 22.5 11.9058 22.5 10.115ZM6.67667 7.9525C6.78417 7.9525 6.87167 8.04 6.87167 8.1475V11.6083H8.7775C8.885 11.6083 8.97167 11.695 8.97167 11.8025V12.5042C8.97167 12.6117 8.885 12.6992 8.7775 12.6992H5.975C5.9225 12.6992 5.87583 12.6783 5.84083 12.645L5.84 12.6442L5.83833 12.6425L5.8375 12.6417L5.835 12.6392C5.80167 12.6042 5.78083 12.5567 5.78083 12.505V8.1475C5.78083 8.04 5.8675 7.9525 5.975 7.9525H6.67667ZM19.17 7.9525C19.2775 7.9525 19.3642 8.04 19.3642 8.1475V8.84917C19.3642 8.95667 19.2775 9.04417 19.17 9.04417H17.2642V9.78H19.17C19.2775 9.78 19.3642 9.8675 19.3642 9.975V10.6767C19.3642 10.7842 19.2775 10.8717 19.17 10.8717H17.2642V11.6083H19.17C19.2775 11.6083 19.3642 11.6958 19.3642 11.8025V12.5042C19.3642 12.6117 19.2775 12.6992 19.17 12.6992H16.3675C16.315 12.6992 16.2675 12.6783 16.2325 12.645L16.23 12.6417L16.2275 12.6392C16.1942 12.6042 16.1725 12.5567 16.1725 12.505V8.1475C16.1725 8.09583 16.1933 8.04833 16.2267 8.01333L16.23 8.01L16.2325 8.0075C16.2675 7.97417 16.315 7.9525 16.3675 7.9525H19.17ZM10.4683 7.95333C10.5758 7.95333 10.6633 8.04 10.6633 8.1475V12.505C10.6633 12.6117 10.5758 12.6992 10.4683 12.6992H9.76667C9.65917 12.6992 9.57167 12.6117 9.57167 12.505V8.1475C9.57167 8.04 9.65917 7.95333 9.76667 7.95333H10.4683ZM12.2408 7.95333H12.2475L12.2575 7.95417L12.2683 7.955L12.2767 7.95583L12.2875 7.95833L12.2942 7.96083L12.3058 7.96417L12.3125 7.96667L12.3233 7.97167L12.3292 7.97417L12.34 7.98L12.3458 7.98333L12.3558 7.99083L12.3608 7.99417L12.3717 8.00333L12.375 8.00667L12.3867 8.01833L12.3883 8.02L12.4033 8.03917L14.4 10.7358V8.1475C14.4 8.04 14.4875 7.95333 14.595 7.95333H15.2958C15.4042 7.95333 15.4908 8.04 15.4908 8.1475V12.505C15.4908 12.6117 15.4042 12.6992 15.2958 12.6992H14.595L14.545 12.6925L14.5417 12.6917L14.5292 12.6875L14.5233 12.685L14.5133 12.6817L14.5042 12.6767L14.4983 12.6742L14.4867 12.6667L14.485 12.665L14.435 12.6167L12.4358 9.91667V12.505C12.4358 12.6117 12.3492 12.6992 12.2408 12.6992H11.54C11.4325 12.6992 11.345 12.6117 11.345 12.505V8.1475C11.345 8.04 11.4325 7.95333 11.54 7.95333H12.2408Z" fill="#3F4252"/>
</svg>
