<svg width="24" height="24" viewBox="0 0 24 24" fill="none" xmlns="http://www.w3.org/2000/svg">
<path d="M8.54 8.33864C8.89 8.70901 8.91 9.26985 8.64 9.70371C8.24 10.3598 8 11.1534 8 12C8 12.8466 8.24 13.6402 8.64 14.2963C8.91 14.7302 8.88 15.3016 8.53 15.6614C8.1 16.1164 7.36 16.0846 7.02 15.545C6.38 14.5397 6 13.3122 6 12C6 10.7196 6.36 9.5344 6.97 8.52911C7.33 7.95769 8.08 7.85187 8.54 8.33864ZM15.46 15.6614C15.89 16.1164 16.63 16.0846 16.97 15.545C17.62 14.5397 18 13.3122 18 12C18 10.6878 17.62 9.46033 16.97 8.44446C16.63 7.91536 15.89 7.87303 15.46 8.32806C15.11 8.69842 15.09 9.25927 15.35 9.69313C15.76 10.3598 16 11.1534 16 12C16 12.8466 15.76 13.6402 15.36 14.2963C15.09 14.7302 15.12 15.3016 15.46 15.6614ZM12 9.88361C10.9 9.88361 10 10.836 10 12C10 13.164 10.9 14.1164 12 14.1164C13.1 14.1164 14 13.164 14 12C14 10.836 13.1 9.88361 12 9.88361ZM18.32 18.6878C18.74 19.1322 19.44 19.1005 19.82 18.6032C21.18 16.7936 22 14.4973 22 12C22 9.50266 21.18 7.20637 19.82 5.39685C19.45 4.8995 18.75 4.86775 18.32 5.31219C17.96 5.69314 17.92 6.28574 18.24 6.70901C19.34 8.15874 20 10 20 12C20 14 19.34 15.8413 18.24 17.291C17.92 17.7037 17.96 18.3069 18.32 18.6878ZM5.68 5.31219C5.26 4.86775 4.56 4.8995 4.18 5.39685C2.82 7.20637 2 9.50266 2 12C2 14.4973 2.82 16.7936 4.18 18.6032C4.55 19.1005 5.25 19.1322 5.68 18.6878C6.04 18.3069 6.08 17.7143 5.76 17.291C4.66 15.8413 4 14 4 12C4 10 4.66 8.15874 5.76 6.70901C6.08 6.29632 6.04 5.69314 5.68 5.31219Z" fill="#3F4252"/>
</svg>
