<svg width="24" height="24" viewBox="0 0 24 24" fill="none" xmlns="http://www.w3.org/2000/svg">
<g clip-path="url(#clip0_736_58352)">
<path d="M9.95666 19.4613C10.2167 19.4613 10.4149 19.3375 10.7245 19.0526L12.4768 17.4427C12.13 17.1641 11.8328 16.6935 11.8328 15.7337V11.3746C11.8328 9.42415 13.0279 8.25387 14.9783 8.25387H19.4365L19.4303 8.06192C19.3189 6.82972 18.5015 6 17.0279 6H8.42105C6.93498 6 6 6.86687 6 8.37771V14.582C6 16.0743 6.91641 16.9907 8.37771 16.9907H9.36842V18.7864C9.36842 19.195 9.58514 19.4613 9.95666 19.4613ZM20.3901 20.3529C20.7678 20.3529 20.9845 20.0867 20.9845 19.678V17.8824H21.6223C23.0836 17.8824 24 16.9659 24 15.4737V11.5356C24 10.0248 23.065 9.15789 21.5789 9.15789H15.1641C13.6223 9.15789 12.743 10.0186 12.743 11.5604V15.4737C12.743 16.9783 13.6285 17.8824 15.1641 17.8824H17.3437L19.6285 19.9443C19.9381 20.2291 20.13 20.3529 20.3901 20.3529Z" fill="#3F4252"/>
<path d="M1.88296 9.84367L0.191072 11.5356C-0.0636908 11.7903 -0.0636908 12.2019 0.191072 12.4566L1.88296 14.1485C2.2945 14.5601 3 14.2661 3 13.6847V10.3009C3 9.71956 2.2945 9.43213 1.88296 9.84367Z" fill="#3F4252"/>
</g>
<defs>
<clipPath id="clip0_736_58352">
<rect width="24" height="24" fill="white"/>
</clipPath>
</defs>
</svg>
