<svg width="24" height="24" viewBox="0 0 24 24" fill="none" xmlns="http://www.w3.org/2000/svg">
<path d="M17.4545 11.0927H12C11.5 11.0927 11.0909 11.5018 11.0909 12.0018V15.6382C11.0909 16.1382 11.5 16.5473 12 16.5473H17.4545C17.9545 16.5473 18.3636 16.1382 18.3636 15.6382V12.0018C18.3636 11.5018 17.9545 11.0927 17.4545 11.0927ZM22 18.3655V5.62C22 4.62 21.1818 3.82 20.1818 3.82H3.81818C2.81818 3.82 2 4.62 2 5.62V18.3655C2 19.3655 2.81818 20.1836 3.81818 20.1836H20.1818C21.1818 20.1836 22 19.3655 22 18.3655ZM19.2727 18.3836H4.72727C4.22727 18.3836 3.81818 17.9745 3.81818 17.4745V6.52C3.81818 6.02 4.22727 5.61091 4.72727 5.61091H19.2727C19.7727 5.61091 20.1818 6.02 20.1818 6.52V17.4745C20.1818 17.9745 19.7727 18.3836 19.2727 18.3836Z" fill="#3F4252"/>
</svg>
