<svg width="24" height="24" viewBox="0 0 24 24" fill="none" xmlns="http://www.w3.org/2000/svg">
<path d="M5 14.9199C5 15.7197 5.54492 16.2471 6.37988 16.2471H11.0732V20.4131C11.0732 21.6348 11.7061 22.8916 11.9521 22.8916C12.1895 22.8916 12.8223 21.6348 12.8223 20.4131V16.2471H17.5244C18.3594 16.2471 18.8955 15.7197 18.8955 14.9199C18.8955 13.0215 17.3926 11.0791 14.9053 10.165L14.624 6.06934C15.9336 5.33105 16.9707 4.51367 17.4189 3.9248C17.665 3.61719 17.7793 3.29199 17.7793 3.01074C17.7793 2.43066 17.3398 2 16.6719 2H7.22363C6.56445 2 6.11621 2.43066 6.11621 3.01074C6.11621 3.29199 6.23047 3.61719 6.47656 3.9248C6.9248 4.51367 7.96191 5.33105 9.27148 6.06934L8.99023 10.165C6.50293 11.0791 5 13.0215 5 14.9199Z" fill="#3F4252"/>
</svg>
