<svg width="24" height="24" viewBox="0 0 24 24" fill="none" xmlns="http://www.w3.org/2000/svg">
<path d="M11.0801 3.1802V20.8202C11.0801 21.4602 10.4901 21.9402 9.87008 21.8002C5.40008 20.8002 2.08008 16.7902 2.08008 12.0002C2.08008 7.2102 5.40008 3.2002 9.87008 2.2002C10.4901 2.0602 11.0801 2.5402 11.0801 3.1802ZM13.1101 3.1802V9.9902C13.1101 10.5402 13.5601 10.9902 14.1101 10.9902H20.9001C21.5401 10.9902 22.0201 10.4002 21.8801 9.7702C21.0301 6.0102 18.0801 3.0502 14.3301 2.2002C13.7001 2.0602 13.1101 2.5402 13.1101 3.1802ZM13.1101 14.0102V20.8202C13.1101 21.4602 13.7001 21.9402 14.3301 21.8002C18.0901 20.9502 21.0401 17.9802 21.8901 14.2202C22.0301 13.6002 21.5401 13.0002 20.9101 13.0002H14.1201C13.5601 13.0102 13.1101 13.4602 13.1101 14.0102Z" fill="#3F4252"/>
</svg>
