<?xml version="1.0" encoding="UTF-8" standalone="no"?> <svg id="Capa_1" enable-background="new 0 0 512.003 512.003" height="512" viewBox="0 0 512.003 512.003" width="512" xmlns="http://www.w3.org/2000/svg"><g><path d="m355.247 285.388-231.822-62.117c-8.005-2.145-16.228 2.605-18.371 10.606-2.144 8.002 2.604 16.227 10.606 18.371l231.823 62.117c1.3.349 2.605.515 3.892.515 6.622 0 12.684-4.42 14.479-11.122 2.144-8.001-2.605-16.226-10.607-18.37z"/><path d="m339.718 343.344-231.822-62.117c-8.005-2.144-16.228 2.604-18.371 10.606-2.144 8.002 2.604 16.227 10.606 18.371l231.823 62.117c1.3.349 2.605.515 3.892.515 6.622 0 12.684-4.42 14.479-11.122 2.144-8.001-2.605-16.226-10.607-18.37z"/><path d="m246.915 380.594-154.548-41.411c-8.004-2.147-16.227 2.604-18.371 10.606s2.604 16.227 10.606 18.371l154.548 41.411c1.301.349 2.606.515 3.892.515 6.623 0 12.684-4.42 14.479-11.122 2.145-8.001-2.604-16.226-10.606-18.37z"/><path d="m511.772 431.883-55.567-315.139c-1.438-8.158-9.215-13.603-17.377-12.167l-127.828 22.54v-72.116c0-30.327-24.673-55-55-55s-55 24.673-55 55v44.117l-99.295-26.606c-8.003-2.146-16.228 2.604-18.371 10.606l-82.823 309.097c-1.03 3.843-.491 7.937 1.499 11.382 1.989 3.445 5.265 5.959 9.108 6.989l105.886 28.372 10.694 60.647c.69 3.918 2.91 7.401 6.168 9.683 2.539 1.778 5.546 2.713 8.604 2.713.867 0 1.739-.075 2.604-.228l146.966-25.914 66.812 17.902c1.3.349 2.605.515 3.892.515 6.622 0 12.684-4.42 14.479-11.122l6.276-23.422 116.106-20.473c8.158-1.438 13.606-9.218 12.167-17.376zm-78.147-270.432-57.381-15.375 53.021-9.349zm-202.625-106.45c0-13.785 11.215-25 25-25s25 11.215 25 25v65.553l-50-13.398zm-76.363 424.623-5.66-32.099 74.497 19.961zm-121.266-94.133 75.058-280.119 172.571 46.241v38.389c0 5.514-4.486 10-10 10s-10-4.486-10-10v-15c0-8.284-6.716-15-15-15s-15 6.716-15 15v15c0 22.056 17.944 40 40 40s40-17.944 40-40v-30.35l116.185 31.131-75.058 280.119zm358.695 52.268 54.449-203.206 33.108 187.767z"/></g></svg>