<svg width="24" height="24" viewBox="0 0 24 24" fill="none" xmlns="http://www.w3.org/2000/svg">
<path fill-rule="evenodd" clip-rule="evenodd" d="M7.54818 2.27582C7.73714 1.90806 8.26286 1.90806 8.45182 2.27582L9.64484 4.59778C10.0327 5.35273 10.6473 5.96727 11.4022 6.35516L13.7242 7.54818C14.0919 7.73714 14.0919 8.26286 13.7242 8.45182L11.4022 9.64484C10.6473 10.0327 10.0327 10.6473 9.64484 11.4022L8.45182 13.7242C8.26286 14.0919 7.73714 14.0919 7.54818 13.7242L6.35516 11.4022C5.96727 10.6473 5.35273 10.0327 4.59778 9.64484L2.27582 8.45182C1.90806 8.26286 1.90806 7.73714 2.27582 7.54818L4.59778 6.35516C5.35273 5.96727 5.96727 5.35273 6.35516 4.59778L7.54818 2.27582ZM17.6988 9.18388C17.8248 8.93871 18.1752 8.93871 18.3012 9.18388L19.0966 10.7319C19.3552 11.2352 19.7648 11.6448 20.2681 11.9034L21.8161 12.6988C22.0613 12.8248 22.0613 13.1752 21.8161 13.3012L20.2681 14.0966C19.7648 14.3552 19.3552 14.7648 19.0966 15.2681L18.3012 16.8161C18.1752 17.0613 17.8248 17.0613 17.6988 16.8161L16.9034 15.2681C16.6448 14.7648 16.2352 14.3552 15.7319 14.0966L14.1839 13.3012C13.9387 13.1752 13.9387 12.8248 14.1839 12.6988L15.7319 11.9034C16.2352 11.6448 16.6448 11.2352 16.9034 10.7319L17.6988 9.18388ZM10.3012 14.1839C10.1752 13.9387 9.82476 13.9387 9.69879 14.1839L8.90344 15.7319C8.64485 16.2352 8.23515 16.6448 7.73185 16.9034L6.18388 17.6988C5.93871 17.8248 5.93871 18.1752 6.18388 18.3012L7.73185 19.0966C8.23515 19.3552 8.64485 19.7648 8.90344 20.2681L9.69879 21.8161C9.82476 22.0613 10.1752 22.0613 10.3012 21.8161L11.0966 20.2681C11.3552 19.7648 11.7648 19.3552 12.2681 19.0966L13.8161 18.3012C14.0613 18.1752 14.0613 17.8248 13.8161 17.6988L12.2681 16.9034C11.7648 16.6448 11.3552 16.2352 11.0966 15.7319L10.3012 14.1839Z" fill="#3F4252"/>
</svg>
