<svg width="24" height="24" viewBox="0 0 24 24" fill="none" xmlns="http://www.w3.org/2000/svg">
<path d="M18.3351 5.64655C16.5017 3.81314 13.9034 2.75583 11.0464 3.04828C6.91841 3.46445 3.52153 6.81634 3.06036 10.9443C2.44172 16.3996 6.6597 21 11.98 21C15.5681 21 18.65 18.8966 20.0898 15.8709C20.4497 15.1173 19.9098 14.2512 19.0774 14.2512C18.6613 14.2512 18.2676 14.4762 18.0876 14.8474C16.8166 17.5806 13.7684 19.3128 10.439 18.5704C7.94197 18.0193 5.92859 15.9834 5.39993 13.4864C4.45511 9.12217 7.77325 5.25288 11.98 5.25288C13.8471 5.25288 15.5118 6.02898 16.7266 7.25501L15.0282 8.95345C14.3196 9.66207 14.8145 10.8768 15.8155 10.8768H19.8535C20.4722 10.8768 20.9783 10.3707 20.9783 9.75205V5.71404C20.9783 4.71297 19.7636 4.20682 19.0549 4.91544L18.3351 5.64655Z" fill="#3F4252"/>
</svg>
