<?xml version="1.0" encoding="UTF-8" standalone="no"?> <svg width="64" height="64" viewBox="0 0 64 64" fill="none" xmlns="http://www.w3.org/2000/svg">
<path d="M50.29 6.5H42.46V4C42.4602 3.60901 42.3076 3.23342 42.0349 2.95324C41.7622 2.67305 41.3909 2.51043 41 2.5H23.18C22.7822 2.5 22.4007 2.65804 22.1194 2.93934C21.8381 3.22064 21.68 3.60218 21.68 4V6.5H14.29C12.8322 6.50264 11.4347 7.08295 10.4039 8.11383C9.37299 9.14471 8.79268 10.5421 8.79004 12V56C8.79268 57.4579 9.37299 58.8553 10.4039 59.8862C11.4347 60.917 12.8322 61.4974 14.29 61.5H50.29C51.7479 61.4974 53.1453 60.917 54.1762 59.8862C55.2071 58.8553 55.7874 57.4579 55.79 56V12C55.7874 10.5421 55.2071 9.14471 54.1762 8.11383C53.1453 7.08295 51.7479 6.50264 50.29 6.5V6.5ZM24.68 5.5H39.46V10.5H24.68V5.5ZM52.79 56C52.79 56.663 52.5266 57.2989 52.0578 57.7678C51.589 58.2366 50.9531 58.5 50.29 58.5H14.29C13.627 58.5 12.9911 58.2366 12.5223 57.7678C12.0534 57.2989 11.79 56.663 11.79 56V12C11.79 11.337 12.0534 10.7011 12.5223 10.2322C12.9911 9.76339 13.627 9.5 14.29 9.5H21.68V12C21.68 12.3978 21.8381 12.7794 22.1194 13.0607C22.4007 13.342 22.7822 13.5 23.18 13.5H41C41.3979 13.5 41.7794 13.342 42.0607 13.0607C42.342 12.7794 42.5 12.3978 42.5 12V9.5H50.33C50.9931 9.5 51.629 9.76339 52.0978 10.2322C52.5666 10.7011 52.83 11.337 52.83 12L52.79 56Z" fill="black"/>
<path d="M44.5 19.75H19.5C19.1022 19.75 18.7206 19.908 18.4393 20.1893C18.158 20.4706 18 20.8522 18 21.25C18 21.6478 18.158 22.0294 18.4393 22.3107C18.7206 22.592 19.1022 22.75 19.5 22.75H44.5C44.8978 22.75 45.2794 22.592 45.5607 22.3107C45.842 22.0294 46 21.6478 46 21.25C46 20.8522 45.842 20.4706 45.5607 20.1893C45.2794 19.908 44.8978 19.75 44.5 19.75Z" fill="black"/>
<path d="M44.5 29.6699H19.5C19.1022 29.6699 18.7206 29.828 18.4393 30.1093C18.158 30.3906 18 30.7721 18 31.1699C18 31.5677 18.158 31.9493 18.4393 32.2306C18.7206 32.5119 19.1022 32.6699 19.5 32.6699H44.5C44.8978 32.6699 45.2794 32.5119 45.5607 32.2306C45.842 31.9493 46 31.5677 46 31.1699C46 30.7721 45.842 30.3906 45.5607 30.1093C45.2794 29.828 44.8978 29.6699 44.5 29.6699Z" fill="black"/>
<path d="M44.5 39.5801H19.5C19.1022 39.5801 18.7206 39.7381 18.4393 40.0194C18.158 40.3007 18 40.6823 18 41.0801C18 41.4779 18.158 41.8594 18.4393 42.1407C18.7206 42.422 19.1022 42.5801 19.5 42.5801H44.5C44.8978 42.5801 45.2794 42.422 45.5607 42.1407C45.842 41.8594 46 41.4779 46 41.0801C46 40.6823 45.842 40.3007 45.5607 40.0194C45.2794 39.7381 44.8978 39.5801 44.5 39.5801Z" fill="black"/>
<path d="M44.5 49.5H19.5C19.1022 49.5 18.7206 49.658 18.4393 49.9393C18.158 50.2206 18 50.6022 18 51C18 51.3978 18.158 51.7794 18.4393 52.0607C18.7206 52.342 19.1022 52.5 19.5 52.5H44.5C44.8978 52.5 45.2794 52.342 45.5607 52.0607C45.842 51.7794 46 51.3978 46 51C46 50.6022 45.842 50.2206 45.5607 49.9393C45.2794 49.658 44.8978 49.5 44.5 49.5Z" fill="black"/>
</svg>
