<svg width="24" height="24" viewBox="0 0 24 24" fill="none" xmlns="http://www.w3.org/2000/svg">
<path d="M15.4996 14H14.7096L14.4296 13.73C15.6296 12.33 16.2496 10.42 15.9096 8.39C15.4396 5.61 13.1196 3.39 10.3196 3.05C6.08965 2.53 2.52965 6.09 3.04965 10.32C3.38965 13.12 5.60965 15.44 8.38965 15.91C10.4196 16.25 12.3296 15.63 13.7296 14.43L13.9996 14.71V15.5L18.2496 19.75C18.6596 20.16 19.3296 20.16 19.7396 19.75C20.1496 19.34 20.1496 18.67 19.7396 18.26L15.4996 14ZM9.49965 14C7.00965 14 4.99965 11.99 4.99965 9.5C4.99965 7.01 7.00965 5 9.49965 5C11.9896 5 13.9996 7.01 13.9996 9.5C13.9996 11.99 11.9896 14 9.49965 14Z" fill="#3F4252"/>
</svg>
