<svg width="24" height="24" viewBox="0 0 24 24" fill="none" xmlns="http://www.w3.org/2000/svg">
<path d="M14.1006 21.624C14.7861 21.624 15.2607 21.0703 15.5859 20.2266L21.3867 5.04785C21.5361 4.66113 21.624 4.31836 21.624 4.01953C21.624 3.39551 21.2285 3 20.5957 3C20.3057 3 19.9541 3.0791 19.5674 3.22852L4.32715 9.06445C3.57129 9.35449 3 9.8291 3 10.5146C3 11.3496 3.62402 11.666 4.48535 11.9297L9.03809 13.3184C9.65332 13.5117 10.0137 13.5029 10.4443 13.0986L20.2354 4.02832C20.3584 3.91406 20.5078 3.93164 20.6045 4.01953C20.7012 4.10742 20.7012 4.26562 20.5957 4.37988L11.543 14.1885C11.1738 14.6016 11.1387 14.9883 11.3232 15.6035L12.6768 20.0684C12.9404 20.9648 13.2568 21.624 14.1006 21.624Z" fill="#3F4252"/>
</svg>
