<svg width="24" height="24" viewBox="0 0 24 24" fill="none" xmlns="http://www.w3.org/2000/svg">
<path d="M12 14.4935C12.4356 14.4935 12.7795 14.1419 12.7795 13.7293V6.14083L12.7183 5.00983L13.1616 5.58297L14.1627 6.65284C14.3002 6.80568 14.4913 6.8821 14.6823 6.8821C15.0568 6.8821 15.3701 6.60699 15.3701 6.21725C15.3701 6.01856 15.2937 5.86572 15.1561 5.72817L12.6037 3.27511C12.3974 3.07642 12.2063 3 12 3C11.7937 3 11.595 3.07642 11.3963 3.27511L8.84389 5.72817C8.69869 5.86572 8.62227 6.01856 8.62227 6.21725C8.62227 6.60699 8.93559 6.8821 9.31004 6.8821C9.50109 6.8821 9.69978 6.80568 9.82969 6.65284L10.8384 5.58297L11.2817 5.00983L11.2129 6.14083V13.7293C11.2129 14.1419 11.5644 14.4935 12 14.4935ZM7.59061 20.6681H16.4094C18.1059 20.6681 19 19.774 19 18.1004V10.6572C19 8.98362 18.1059 8.08952 16.4094 8.08952H14.3843V9.79367H16.2642C16.929 9.79367 17.2959 10.1376 17.2959 10.833V17.9247C17.2959 18.6277 16.929 18.964 16.2642 18.964H7.73581C7.06332 18.964 6.70415 18.6277 6.70415 17.9247V10.833C6.70415 10.1376 7.06332 9.79367 7.73581 9.79367H9.63865V8.08952H7.59061C5.90175 8.08952 5 8.98362 5 10.6572V18.1004C5 19.7817 5.90175 20.6681 7.59061 20.6681Z" fill="#3F4252"/>
</svg>
