<svg width="24" height="24" viewBox="0 0 24 24" fill="none" xmlns="http://www.w3.org/2000/svg">
<path d="M4.88379 19.0677C5.27051 19.0677 5.60449 18.9534 5.98242 18.7337L14.9912 13.4427C15.5098 13.1351 15.835 12.7747 15.9404 12.3441V18.0394C15.9404 18.8743 16.3711 19.305 17.2061 19.305H19.2715C20.1064 19.305 20.5371 18.8743 20.5371 18.0394V5.94563C20.5371 5.09309 20.1064 4.68 19.2715 4.68H17.2061C16.3711 4.68 15.9404 5.11066 15.9404 5.94563V11.6321C15.835 11.2015 15.5186 10.8587 14.9912 10.5423L5.98242 5.25129C5.5957 5.03156 5.27051 4.9173 4.875 4.9173C4.10156 4.9173 3.45996 5.49738 3.45996 6.56965V17.4154C3.45996 18.4876 4.11035 19.0677 4.88379 19.0677Z" fill="#3F4252"/>
</svg>
