<svg width="24" height="24" viewBox="0 0 24 24" fill="none" xmlns="http://www.w3.org/2000/svg">
<path d="M4.72572 19.305H6.79115C7.62611 19.305 8.05677 18.8743 8.05677 18.0394V12.3441C8.02162 12.2298 8.01283 12.1155 8.01283 11.9837C8.01283 11.8607 8.02162 11.7376 8.05677 11.6321V5.94563C8.05677 5.09309 7.62611 4.68879 6.79115 4.68H4.72572C3.89076 4.68 3.46009 5.11066 3.46009 5.94563V18.0394C3.4513 18.8743 3.88197 19.305 4.72572 19.305ZM19.1134 19.0677C19.8869 19.0677 20.5372 18.4876 20.5372 17.4154V6.56965C20.5372 5.49738 19.8956 4.9173 19.1222 4.9173C18.7355 4.9173 18.4015 5.03156 18.0148 5.25129L9.00599 10.5423C8.48744 10.8587 8.16224 11.2015 8.05677 11.6321V12.3441C8.17103 12.7747 8.48744 13.1351 9.00599 13.4427L18.0148 18.7337C18.4015 18.9534 18.7267 19.0677 19.1134 19.0677Z" fill="#3F4252"/>
</svg>
