<svg width="24" height="24" viewBox="0 0 24 24" fill="none" xmlns="http://www.w3.org/2000/svg">
<path d="M15.9995 17.01V11C15.9995 10.45 15.5495 10 14.9995 10C14.4495 10 13.9995 10.45 13.9995 11V17.01H12.2095C11.7595 17.01 11.5395 17.55 11.8595 17.86L14.6495 20.64C14.8495 20.83 15.1595 20.83 15.3595 20.64L18.1495 17.86C18.4695 17.55 18.2395 17.01 17.7995 17.01H15.9995ZM8.64954 3.35002L5.85954 6.14002C5.53954 6.45002 5.75954 6.99002 6.20954 6.99002H7.99954V13C7.99954 13.55 8.44954 14 8.99954 14C9.54954 14 9.99954 13.55 9.99954 13V6.99002H11.7895C12.2395 6.99002 12.4595 6.45002 12.1395 6.14002L9.34954 3.35002C9.15954 3.16002 8.83954 3.16002 8.64954 3.35002Z" fill="#3F4252"/>
</svg>
