<svg width="24" height="24" viewBox="0 0 24 24" fill="none" xmlns="http://www.w3.org/2000/svg">
<path fill-rule="evenodd" clip-rule="evenodd" d="M18.415 10.865C15.1917 8.95083 9.875 8.775 6.7975 9.70917C6.30333 9.85917 5.78083 9.58 5.63167 9.08583C5.48167 8.59167 5.76 8.06917 6.255 7.91917C9.7875 6.84667 15.6592 7.05417 19.37 9.25667C19.8142 9.52083 19.96 10.0942 19.6967 10.5383C19.4333 10.9825 18.8592 11.1292 18.415 10.865ZM18.31 13.7008C18.0833 14.0675 17.6042 14.1825 17.2375 13.9575C14.55 12.3058 10.4525 11.8267 7.2725 12.7917C6.86083 12.9167 6.425 12.6842 6.3 12.2725C6.17583 11.86 6.40833 11.4258 6.82 11.3C10.4517 10.1983 14.9667 10.7317 18.0533 12.6292C18.42 12.8542 18.535 13.335 18.31 13.7008ZM17.0858 16.4233C16.9067 16.7183 16.5225 16.8108 16.2292 16.6308C13.8808 15.1958 10.925 14.8717 7.44417 15.6667C7.10917 15.7433 6.775 15.5333 6.69833 15.1983C6.62167 14.8625 6.83083 14.5283 7.16667 14.4517C10.9758 13.5808 14.2433 13.9558 16.8792 15.5667C17.1733 15.7458 17.2658 16.13 17.0858 16.4233ZM12.5 2C6.9775 2 2.5 6.4775 2.5 12C2.5 17.5233 6.9775 22 12.5 22C18.0233 22 22.5 17.5233 22.5 12C22.5 6.4775 18.0233 2 12.5 2Z" fill="#3F4252"/>
</svg>
