<svg width="24" height="24" viewBox="0 0 24 24" fill="none" xmlns="http://www.w3.org/2000/svg">
<path d="M10 18.5C11.3805 18.5 12.5 17.3805 12.5 16V15.5V15V3.03497H15.104C15.0885 2.96497 15.068 2.89697 15.0555 2.82547H15.055C15.033 2.70147 15.017 2.57797 15.0055 2.45247V2.03497H11.5V14V14.5V15C11.5 16.3805 10.3805 17.5 9 17.5C8.568 17.5 8.1675 17.3805 7.8125 17.1875C8.2365 17.9655 9.0515 18.5 10 18.5Z" fill="#75F1EC"/>
<path d="M16.8585 5.70347C16.46 5.15647 16.1765 4.51997 16.055 3.82547H16.0545C16.0325 3.70147 16.0165 3.57797 16.005 3.45247V3.03497H15.1035C15.349 4.12597 15.984 5.06597 16.8585 5.70347Z" fill="#EB4357"/>
<path d="M9 12.5C7.6195 12.5 6.5 13.6195 6.5 15C6.5 15.9485 7.0345 16.7635 7.8125 17.1875C7.6195 16.8325 7.5 16.432 7.5 16C7.5 14.6195 8.6195 13.5 10 13.5C10.1715 13.5 10.3385 13.5175 10.5 13.5505V10.0255C10.3345 10.0115 10.169 10 10 10C9.831 10 9.6655 10.0115 9.5 10.025V12.55C9.3385 12.5175 9.1715 12.5 9 12.5Z" fill="#EB4358"/>
<path d="M18.1284 6.8915C18.5619 7.162 19.0379 7.3455 19.5314 7.457V7.269V7.268V6.5775C18.6814 6.579 17.8494 6.341 17.1284 5.891C17.0354 5.833 16.9479 5.7675 16.8594 5.703C17.2029 6.1755 17.6314 6.5815 18.1284 6.8915Z" fill="#74F1EC"/>
<path d="M9.5 10.025V9.025C9.3345 9.0115 9.169 9 9 9C5.6865 9 3 11.6865 3 15C3 16.912 3.8975 18.611 5.2905 19.7095C4.4845 18.6885 4 17.402 4 16C4 12.855 6.421 10.28 9.5 10.025Z" fill="#75F2EA"/>
<path d="M19.5305 7.45697V9.82347C17.843 9.82347 16.28 9.28797 15.0045 8.37647L15.006 15L14.999 14.991C14.999 14.994 14.9995 14.997 14.9995 15C14.9995 18.3135 12.313 21 8.99954 21C7.59754 21 6.31104 20.5155 5.29004 19.7095C6.38854 21.1025 8.08754 22 9.99954 22C13.313 22 15.9995 19.3135 15.9995 16C15.9995 15.997 15.999 15.994 15.999 15.991L16.006 16L16.005 9.37597C17.2805 10.2875 18.8435 10.823 20.531 10.823V8.26897V8.26797V7.57747C20.192 7.57847 19.858 7.53047 19.5305 7.45697Z" fill="#EB4359"/>
<path d="M15 15C15 14.997 14.9995 14.994 14.9995 14.991L15.0065 15L15.0055 8.37599C16.281 9.28749 17.844 9.82298 19.5315 9.82298V7.45648C19.038 7.34499 18.562 7.16148 18.1285 6.89098C17.6315 6.58098 17.203 6.17498 16.8595 5.70299C15.9845 5.06549 15.35 4.12548 15.1045 3.03448H12.5V15V15.5V16C12.5 17.3805 11.3805 18.5 10 18.5C9.0515 18.5 8.2365 17.9655 7.8125 17.1875C7.0345 16.7635 6.5 15.9485 6.5 15C6.5 13.6195 7.6195 12.5 9 12.5C9.1715 12.5 9.3385 12.5175 9.5 12.5505V10.0255C6.421 10.28 4 12.855 4 16C4 17.402 4.4845 18.6885 5.2905 19.7095C6.3115 20.5155 7.598 21 9 21C12.3135 21 15 18.3135 15 15Z" fill="black"/>
</svg>
