<svg width="24" height="24" viewBox="0 0 24 24" fill="none" xmlns="http://www.w3.org/2000/svg">
<path d="M19.48 11.854C17.91 7.77405 12.32 7.55405 13.67 1.62405C13.77 1.18405 13.3 0.844047 12.92 1.07405C9.29 3.21405 6.68 7.50405 8.87 13.124C9.05 13.584 8.51 14.014 8.12 13.714C6.31 12.344 6.12 10.374 6.28 8.96405C6.34 8.44405 5.66 8.19405 5.37 8.62405C4.69 9.66405 4 11.344 4 13.874C4.38 19.474 9.11 21.194 10.81 21.414C13.24 21.724 15.87 21.274 17.76 19.544C19.84 17.614 20.6 14.534 19.48 11.854Z" fill="#3F4252"/>
</svg>
