<svg width="24" height="24" viewBox="0 0 24 24" fill="none" xmlns="http://www.w3.org/2000/svg">
<path d="M22.5 5.92417C21.7642 6.25083 20.9733 6.47083 20.1433 6.57C20.9908 6.0625 21.6417 5.25833 21.9475 4.3C21.155 4.77 20.2767 5.11167 19.3417 5.29583C18.5942 4.49833 17.5267 4 16.3467 4C13.6975 4 11.7508 6.47167 12.3492 9.0375C8.94 8.86667 5.91667 7.23333 3.8925 4.75083C2.8175 6.595 3.335 9.0075 5.16167 10.2292C4.49 10.2075 3.85667 10.0233 3.30417 9.71583C3.25917 11.6167 4.62167 13.395 6.595 13.7908C6.0175 13.9475 5.385 13.9842 4.74167 13.8608C5.26333 15.4908 6.77833 16.6767 8.575 16.71C6.85 18.0625 4.67667 18.6667 2.5 18.41C4.31583 19.5742 6.47333 20.2533 8.79 20.2533C16.4083 20.2533 20.7125 13.8192 20.4525 8.04833C21.2542 7.46917 21.95 6.74667 22.5 5.92417Z" fill="#3F4252"/>
</svg>
